<?xml version="1.0" encoding="UTF-8"?>
<!DOCTYPE svg PUBLIC "-//W3C//DTD SVG 1.1//EN" "http://www.w3.org/Graphics/SVG/1.1/DTD/svg11.dtd">
<svg xmlns="http://www.w3.org/2000/svg" version="1.1" width="2716px" height="2640px" style="shape-rendering:geometricPrecision; text-rendering:geometricPrecision; image-rendering:optimizeQuality; fill-rule:evenodd; clip-rule:evenodd" xmlns:xlink="http://www.w3.org/1999/xlink">
<g><path style="opacity:0.981" fill="#332c2b" d="M 1320.5,147.5 C 1323.52,147.335 1326.52,147.502 1329.5,148C 1495.16,204.871 1654.16,276.204 1806.5,362C 2056.89,505.671 2271.06,691.837 2449,920.5C 2488.94,972.779 2526.94,1026.45 2563,1081.5C 2530.29,1366.7 2455.95,1640.37 2340,1902.5C 2283.47,2027.23 2221.47,2148.89 2154,2267.5C 2123.17,2321.16 2091.84,2374.5 2060,2427.5C 1849.01,2477.36 1635.18,2507.52 1418.5,2518C 1156.86,2527.74 898.855,2501.74 644.5,2440C 616.499,2433.44 588.666,2426.28 561,2418.5C 559.523,2417.56 558.523,2416.22 558,2414.5C 538.989,2370.79 519.989,2327.12 501,2283.5C 431.007,2132.85 363.34,1981.18 298,1828.5C 267.837,1753.68 239.837,1678.01 214,1601.5C 165.672,1454.51 131.672,1304.18 112,1150.5C 111.333,1146.5 111.333,1142.5 112,1138.5C 198.865,989.975 298.532,850.641 411,720.5C 630.687,471.933 897.52,292.766 1211.5,183C 1247.79,170.685 1284.12,158.852 1320.5,147.5 Z"/></g>
<g><path style="opacity:1" fill="#fcfcfc" d="M 2514.5,1123.5 C 2512.72,1131.97 2511.38,1140.63 2510.5,1149.5C 2473.64,1409.77 2401.48,1659.44 2294,1898.5C 2244.15,2007.87 2189.82,2114.87 2131,2219.5C 2098.46,2276.74 2065.3,2333.58 2031.5,2390C 1846.08,2432.4 1658.41,2459.74 1468.5,2472C 1353.12,2478.38 1237.79,2477.88 1122.5,2470.5C 1113.37,2469.01 1104.04,2468.34 1094.5,2468.5C 1049.36,2465.08 1004.36,2460.41 959.5,2454.5C 952.399,2452.77 945.066,2451.77 937.5,2451.5C 820.56,2435.71 705.227,2412.38 591.5,2381.5C 534.786,2252.73 476.953,2124.4 418,1996.5C 369.665,1889.52 324.998,1781.19 284,1671.5C 257.366,1595.34 233.366,1518.34 212,1440.5C 188.394,1347.86 170.061,1254.2 157,1159.5C 156.333,1155.5 156.333,1151.5 157,1147.5C 228.535,1027.4 308.202,913.07 396,804.5C 509.162,666.978 638.329,547.478 783.5,446C 950.366,332.682 1131.03,248.349 1325.5,193C 1519.5,259.175 1703.17,346.508 1876.5,455C 2135.11,621.943 2348.94,834.109 2518,1091.5C 2517.09,1102.16 2515.93,1112.83 2514.5,1123.5 Z"/></g>
<g><path style="opacity:1" fill="#342e2c" d="M 1429.5,2400.5 C 1413.66,2400.83 1398,2401.49 1382.5,2402.5C 1310.09,2404.36 1237.76,2403.36 1165.5,2399.5C 1150.7,2397.72 1135.7,2396.72 1120.5,2396.5C 1073.98,2393.44 1027.65,2388.78 981.5,2382.5C 972.066,2380.44 962.4,2379.11 952.5,2378.5C 841.214,2363.61 731.38,2341.61 623,2312.5C 579.375,2213.58 534.375,2115.25 488,2017.5C 443.087,1920.01 400.087,1821.67 359,1722.5C 323.98,1633.44 293.313,1542.77 267,1450.5C 240.843,1353.86 221.343,1255.86 208.5,1156.5C 294.264,1010.7 394.431,875.364 509,750.5C 687.501,559.132 898.667,415.298 1142.5,319C 1202.24,295.354 1263.07,274.854 1325,257.5C 1531.65,324.917 1725.49,418.083 1906.5,537C 2130.22,688.384 2316.72,876.551 2466,1101.5C 2444.09,1284.52 2403.09,1463.18 2343,1637.5C 2297.71,1763.65 2244.05,1886.31 2182,2005.5C 2125.29,2112.62 2065.29,2217.62 2002,2320.5C 1813.59,2363.97 1622.76,2390.64 1429.5,2400.5 Z"/></g>
<g><path style="opacity:1" fill="#007236" d="M 1321.5,264.5 C 1326.34,264.421 1331,265.255 1335.5,267C 1483.74,317.789 1626.41,381.123 1763.5,457C 2046.81,616.624 2278.64,832.124 2459,1103.5C 2434.24,1312.86 2383.91,1515.86 2308,1712.5C 2244.88,1870.07 2170.55,2022.07 2085,2168.5C 2056.23,2217.59 2027.06,2266.43 1997.5,2315C 1815.98,2355.66 1632.32,2381.66 1446.5,2393C 1227.83,2404.62 1011.16,2388.95 796.5,2346C 740.796,2335.05 685.463,2322.38 630.5,2308C 629.584,2307.63 628.75,2307.13 628,2306.5C 579.635,2198.41 530.302,2090.74 480,1983.5C 437.068,1890.32 396.401,1796.32 358,1701.5C 312.727,1586 276.061,1467.67 248,1346.5C 234.625,1284.08 223.792,1221.25 215.5,1158C 302.965,1009.5 405.465,872.001 523,745.5C 720.17,538.099 954.67,387.932 1226.5,295C 1258.17,284.497 1289.84,274.331 1321.5,264.5 Z"/></g>
<g><path style="opacity:1" fill="#fafbfb" d="M 1331.5,469.5 C 1339.84,469.334 1348.17,469.5 1356.5,470C 1359.23,470.21 1361.73,471.044 1364,472.5C 1378.06,514.683 1391.73,557.016 1405,599.5C 1405.76,601.769 1405.59,603.936 1404.5,606C 1395.86,607.928 1387.19,607.928 1378.5,606C 1374.44,595.836 1370.78,585.502 1367.5,575C 1351.99,574.762 1336.49,574.262 1321,573.5C 1319.5,573.833 1318,574.167 1316.5,574.5C 1313.51,584.325 1309.84,593.825 1305.5,603C 1298.61,604.591 1291.61,604.924 1284.5,604C 1281.12,602.971 1279.96,600.804 1281,597.5C 1296.68,556.494 1312.35,515.494 1328,474.5C 1329,472.677 1330.16,471.01 1331.5,469.5 Z"/></g>
<g><path style="opacity:1" fill="#fafcfb" d="M 1464.5,476.5 C 1474.18,478.114 1483.85,479.948 1493.5,482C 1498.39,483.686 1501.89,486.853 1504,491.5C 1508.55,522.488 1513.05,553.488 1517.5,584.5C 1534.25,559.337 1550.75,534.004 1567,508.5C 1573.37,501.226 1581.2,499.393 1590.5,503C 1595.78,504.547 1601.12,505.88 1606.5,507C 1612.09,509.451 1613.92,513.617 1612,519.5C 1604.75,551.105 1597.75,582.771 1591,614.5C 1589.21,622.488 1587.05,630.322 1584.5,638C 1576.66,639.403 1569.33,638.07 1562.5,634C 1561.2,633.196 1560.53,632.029 1560.5,630.5C 1568.54,595.022 1576.21,559.689 1583.5,524.5C 1562.7,557.8 1541.7,590.967 1520.5,624C 1512.92,624.939 1505.58,623.939 1498.5,621C 1497.33,619.833 1496.17,618.667 1495,617.5C 1491.48,579.352 1486.81,541.352 1481,503.5C 1473,538.832 1465,574.166 1457,609.5C 1448.61,611.536 1440.78,610.202 1433.5,605.5C 1433.17,604.5 1432.83,603.5 1432.5,602.5C 1440.89,563.144 1449.39,523.811 1458,484.5C 1459.3,481.039 1461.47,478.372 1464.5,476.5 Z"/></g>
<g><path style="opacity:1" fill="#fafcfb" d="M 1188.5,481.5 C 1194.18,481.334 1199.84,481.501 1205.5,482C 1206.67,482.5 1207.5,483.333 1208,484.5C 1211.65,520.195 1215.48,555.861 1219.5,591.5C 1233.24,590.883 1246.9,589.55 1260.5,587.5C 1264.08,587.911 1266.25,589.911 1267,593.5C 1267.67,598.167 1267.67,602.833 1267,607.5C 1266.5,608.667 1265.67,609.5 1264.5,610C 1242.18,612.544 1219.85,614.544 1197.5,616C 1196.67,615.167 1195.83,614.333 1195,613.5C 1189.72,571.758 1184.89,529.925 1180.5,488C 1180.44,486.289 1181.11,484.956 1182.5,484C 1184.72,483.434 1186.72,482.6 1188.5,481.5 Z"/></g>
<g><path style="opacity:1" fill="#fafcfb" d="M 1099.5,499.5 C 1107.46,498.867 1115.13,500.034 1122.5,503C 1126.52,509.244 1128.19,516.077 1127.5,523.5C 1119.99,522.958 1112.49,522.291 1105,521.5C 1094.74,520.796 1087.07,524.796 1082,533.5C 1080.67,541.335 1083.5,547.168 1090.5,551C 1103.15,553.666 1115.82,556.333 1128.5,559C 1149.13,566.077 1158.3,580.577 1156,602.5C 1153.08,616.083 1145.58,626.249 1133.5,633C 1116.89,641.525 1099.56,643.525 1081.5,639C 1080.33,637.833 1079.17,636.667 1078,635.5C 1075.6,630.003 1074.27,624.336 1074,618.5C 1074.5,618 1075,617.5 1075.5,617C 1079.55,617.009 1083.55,617.676 1087.5,619C 1098.57,620.583 1109.24,619.249 1119.5,615C 1127.92,610.554 1130.75,603.72 1128,594.5C 1124.78,588.306 1119.62,584.806 1112.5,584C 1098.56,582.947 1085.23,579.614 1072.5,574C 1058.92,563.966 1053.09,550.466 1055,533.5C 1058.75,520.828 1066.58,511.661 1078.5,506C 1085.47,503.347 1092.47,501.18 1099.5,499.5 Z"/></g>
<g><path style="opacity:1" fill="#0c7439" d="M 1344.5,496.5 C 1350.98,515.164 1356.65,534.164 1361.5,553.5C 1349.16,553.427 1336.82,553.094 1324.5,552.5C 1330.57,533.63 1337.23,514.963 1344.5,496.5 Z"/></g>
<g><path style="opacity:1" fill="#fafcfb" d="M 997.5,535.5 C 1000.69,534.961 1003.19,535.961 1005,538.5C 1020.69,578.056 1036.53,617.556 1052.5,657C 1051.51,659.321 1049.85,660.987 1047.5,662C 1041.13,665.129 1034.46,666.795 1027.5,667C 1010.88,627.089 994.542,587.089 978.5,547C 979.439,545.056 980.773,543.389 982.5,542C 987.59,539.782 992.59,537.616 997.5,535.5 Z"/></g>
<g><path style="opacity:1" fill="#fbfcfc" d="M 1730.5,556.5 C 1737.22,557.852 1743.55,560.352 1749.5,564C 1762.83,570.662 1775.5,578.328 1787.5,587C 1809.25,607.35 1813.75,631.183 1801,658.5C 1793.78,676.055 1781.94,689.555 1765.5,699C 1750.3,704.628 1734.97,704.962 1719.5,700C 1703.22,692.192 1687.22,683.859 1671.5,675C 1669.7,673.406 1668.7,671.406 1668.5,669C 1686.87,633.62 1705.7,598.453 1725,563.5C 1726.67,561.004 1728.5,558.671 1730.5,556.5 Z"/></g>
<g><path style="opacity:1" fill="#037237" d="M 1778.5,615.5 C 1779.25,620.463 1779.59,625.463 1779.5,630.5C 1776.03,650.763 1765.7,666.263 1748.5,677C 1737.59,680.735 1726.93,680.068 1716.5,675C 1710.97,672.07 1705.63,668.904 1700.5,665.5C 1714.96,639.413 1729.29,613.247 1743.5,587C 1754.17,590.261 1763.67,595.761 1772,603.5C 1774.83,607.155 1776.99,611.155 1778.5,615.5 Z"/></g>
<g><path style="opacity:1" fill="#fafcfb" d="M 870.5,598.5 C 878.903,596.346 885.07,599.013 889,606.5C 891.505,609.819 892.505,613.486 892,617.5C 880.301,617.772 869.467,620.938 859.5,627C 852.181,632.569 850.681,639.402 855,647.5C 856.938,650.106 859.438,651.939 862.5,653C 868.167,653.667 873.833,653.667 879.5,653C 893.315,649.432 906.981,649.765 920.5,654C 931.564,659.606 938.731,668.44 942,680.5C 944.577,699.184 938.411,714.351 923.5,726C 910.194,736.102 895.194,740.768 878.5,740C 873.006,734.89 869.839,728.723 869,721.5C 869.5,721 870,720.5 870.5,720C 885.407,720.944 898.741,716.944 910.5,708C 917.37,700.8 918.203,692.967 913,684.5C 910.293,682.064 907.127,680.564 903.5,680C 897.833,679.333 892.167,679.333 886.5,680C 874.782,683.154 863.116,683.154 851.5,680C 833.634,671.114 825.468,656.614 827,636.5C 831.483,623.014 839.983,612.847 852.5,606C 858.647,603.485 864.647,600.985 870.5,598.5 Z"/></g>
<g><path style="opacity:1" fill="#88bda1" d="M 1778.5,615.5 C 1779.99,618.186 1780.66,621.186 1780.5,624.5C 1780.5,626.696 1780.16,628.696 1779.5,630.5C 1779.59,625.463 1779.25,620.463 1778.5,615.5 Z"/></g>
<g><path style="opacity:1" fill="#fbfcfb" d="M 1891.5,655.5 C 1895.46,655.089 1899.13,655.922 1902.5,658C 1908.62,662.456 1914.46,667.289 1920,672.5C 1920.78,673.729 1921.28,675.062 1921.5,676.5C 1907.49,720.084 1892.49,763.251 1876.5,806C 1874.03,806.706 1871.7,806.373 1869.5,805C 1864.57,800.952 1859.74,796.785 1855,792.5C 1854.33,790.167 1854.33,787.833 1855,785.5C 1857.93,777.538 1860.77,769.538 1863.5,761.5C 1862.35,759.851 1861.02,758.351 1859.5,757C 1847.4,748.196 1835.56,739.029 1824,729.5C 1815.49,736.017 1806.49,741.683 1797,746.5C 1792.32,744.906 1788.15,742.406 1784.5,739C 1781.9,736.906 1779.9,734.406 1778.5,731.5C 1778.88,729.617 1779.88,728.117 1781.5,727C 1818.4,703.392 1855.07,679.558 1891.5,655.5 Z"/></g>
<g><path style="opacity:1" fill="#fbfcfc" d="M 745.5,686.5 C 785.395,708.786 825.061,731.619 864.5,755C 866.396,756.808 866.896,758.975 866,761.5C 860.187,767.49 853.687,772.49 846.5,776.5C 837.373,771.434 828.373,766.101 819.5,760.5C 806.182,771.154 793.182,782.154 780.5,793.5C 785.734,803.369 789.234,813.703 791,824.5C 785.986,829.823 780.319,834.156 774,837.5C 771.463,837.3 769.796,835.967 769,833.5C 753.611,793.055 737.944,752.722 722,712.5C 721.333,710.5 721.333,708.5 722,706.5C 729.069,698.748 736.902,692.081 745.5,686.5 Z"/></g>
<g><path style="opacity:1" fill="#087338" d="M 1889.5,684.5 C 1890.38,684.369 1891.04,684.702 1891.5,685.5C 1885.14,703.576 1878.48,721.576 1871.5,739.5C 1861.25,732.545 1851.58,724.878 1842.5,716.5C 1858.41,706.058 1874.07,695.391 1889.5,684.5 Z"/></g>
<g><path style="opacity:1" fill="#087338" d="M 748.5,718.5 C 749.721,717.535 751.054,717.702 752.5,719C 767.5,728.836 782.833,738.169 798.5,747C 799.451,747.718 799.617,748.551 799,749.5C 789.98,757.355 780.813,765.022 771.5,772.5C 763.811,754.409 756.144,736.409 748.5,718.5 Z"/></g>
<g><path style="opacity:1" fill="#332c2b" d="M 1306.5,723.5 C 1458.94,718.843 1597.94,759.01 1723.5,844C 1866.73,945.669 1954.56,1083.17 1987,1256.5C 2014.35,1454.23 1962.01,1627.23 1830,1775.5C 1704.07,1907.19 1549.57,1978.03 1366.5,1988C 1185,1994.07 1026,1938.07 889.5,1820C 745.355,1687.23 675.522,1522.4 680,1325.5C 691.82,1154.71 760.32,1011.54 885.5,896C 1005.55,790.005 1145.88,732.505 1306.5,723.5 Z"/></g>
<g><path style="opacity:1" fill="#fbfcfb" d="M 1988.5,738.5 C 1990.86,738.337 1993.19,738.503 1995.5,739C 2008.03,751.866 2020.2,765.033 2032,778.5C 2046.8,802.749 2041.97,821.915 2017.5,836C 2006.7,839.991 1996.37,839.158 1986.5,833.5C 1986.46,838.045 1986.29,842.712 1986,847.5C 1980.64,863.237 1974.31,878.571 1967,893.5C 1965.43,898.124 1962.59,899.291 1958.5,897C 1952.14,891.821 1947.14,885.654 1943.5,878.5C 1950.27,863.956 1956.77,849.289 1963,834.5C 1963.67,830.5 1963.67,826.5 1963,822.5C 1960.22,818.049 1957.05,813.883 1953.5,810C 1940.7,820.11 1928.37,831.11 1916.5,843C 1913.83,845 1911.17,845 1908.5,843C 1902.8,838.479 1898.47,832.979 1895.5,826.5C 1897.57,822.921 1900.24,819.754 1903.5,817C 1932.33,791.335 1960.66,765.168 1988.5,738.5 Z"/></g>
<g><path style="opacity:1" fill="#fafafa" d="M 1366.5,745.5 C 1542.48,755.256 1691.31,823.256 1813,949.5C 1905.15,1050.18 1957.99,1168.85 1971.5,1305.5C 1972.32,1330.49 1972.65,1355.49 1972.5,1380.5C 1962.46,1551.08 1894.12,1693.24 1767.5,1807C 1636.58,1918.29 1484.58,1971.79 1311.5,1967.5C 1302.37,1966.01 1293.04,1965.34 1283.5,1965.5C 1118.76,1951.04 979.264,1884.7 865,1766.5C 764.259,1657.95 709.759,1529.29 701.5,1380.5C 701.218,1353.14 701.885,1325.8 703.5,1298.5C 717.062,1171.76 765.228,1060.42 848,964.5C 962.667,836.914 1105.83,764.581 1277.5,747.5C 1307.14,745.839 1336.81,745.173 1366.5,745.5 Z"/></g>
<g><path style="opacity:1" fill="#b2afaf" d="M 1366.5,745.5 C 1336.81,745.173 1307.14,745.839 1277.5,747.5C 1286.98,746.298 1296.65,745.465 1306.5,745C 1326.67,744.171 1346.67,744.338 1366.5,745.5 Z"/></g>
<g><path style="opacity:1" fill="#fbfcfb" d="M 669.5,753.5 C 673.882,754.859 677.882,757.026 681.5,760C 683.958,761.787 685.624,764.121 686.5,767C 680.035,776.087 673.201,784.92 666,793.5C 665.333,794.5 665.333,795.5 666,796.5C 694.183,818.927 722.183,841.594 750,864.5C 749.914,867.702 748.914,870.702 747,873.5C 743.608,878.56 739.274,882.56 734,885.5C 705.034,862.704 676.2,839.704 647.5,816.5C 640.355,825.479 633.022,834.313 625.5,843C 623.029,843.706 620.695,843.373 618.5,842C 615.035,839.537 611.869,836.704 609,833.5C 608.294,831.029 608.627,828.695 610,826.5C 630.32,802.503 650.154,778.17 669.5,753.5 Z"/></g>
<g><path style="opacity:1" fill="#b6b3b3" d="M 1360.5,761.5 C 1371.04,761.325 1381.37,761.991 1391.5,763.5C 1380.97,763.53 1370.64,762.863 1360.5,761.5 Z"/></g>
<g><path style="opacity:1" fill="#767271" d="M 1311.5,761.5 C 1303.05,763.072 1294.38,763.739 1285.5,763.5C 1293.95,761.928 1302.62,761.261 1311.5,761.5 Z"/></g>
<g><path style="opacity:1" fill="#342d2c" d="M 1311.5,761.5 C 1327.83,761.5 1344.17,761.5 1360.5,761.5C 1370.64,762.863 1380.97,763.53 1391.5,763.5C 1564.9,780.777 1708.07,855.11 1821,986.5C 1922.57,1113.7 1965.07,1258.7 1948.5,1421.5C 1946.43,1430.26 1945.1,1439.26 1944.5,1448.5C 1910.09,1621.67 1818.42,1755.17 1669.5,1849C 1585.97,1900.01 1495.31,1930.18 1397.5,1939.5C 1383.67,1940.29 1370,1941.29 1356.5,1942.5C 1194.1,1945.76 1050.77,1895.93 926.5,1793C 811.479,1693.15 743.979,1567.32 724,1415.5C 722.947,1407.2 722.447,1398.86 722.5,1390.5C 721.203,1362.5 721.203,1334.5 722.5,1306.5C 737.069,1155.2 799.735,1028.03 910.5,925C 1017.11,829.593 1142.11,775.759 1285.5,763.5C 1294.38,763.739 1303.05,763.072 1311.5,761.5 Z"/></g>
<g><path style="opacity:1" fill="#1a5030" d="M 1313.5,772.5 C 1321.49,771.834 1329.66,771.5 1338,771.5C 1351.36,771.37 1364.53,772.037 1377.5,773.5C 1356.18,772.741 1334.84,772.408 1313.5,772.5 Z"/></g>
<g><path style="opacity:1" fill="#067338" d="M 1994.5,769.5 C 1999.39,773.887 2004.22,778.554 2009,783.5C 2016.07,794.316 2014.57,803.816 2004.5,812C 1996.43,815.799 1988.76,815.133 1981.5,810C 1976.61,805.614 1972.28,800.78 1968.5,795.5C 1976.66,787.511 1984.99,779.678 1993.5,772C 1994.25,771.329 1994.59,770.496 1994.5,769.5 Z"/></g>
<g><path style="opacity:1" fill="#007135" d="M 1313.5,772.5 C 1334.84,772.408 1356.18,772.741 1377.5,773.5C 1520.57,783.396 1645.57,835.563 1752.5,930C 1898.55,1067.1 1959.71,1235.6 1936,1435.5C 1905.05,1607.67 1816.55,1741.17 1670.5,1836C 1575.08,1895.53 1471.08,1927.36 1358.5,1931.5C 1332.14,1931.69 1305.81,1931.02 1279.5,1929.5C 1117.46,1913.4 981.957,1845.4 873,1725.5C 772.511,1608.38 725.511,1472.38 732,1317.5C 739.555,1207.47 775.555,1108.14 840,1019.5C 948.189,877.867 1091.36,796.367 1269.5,775C 1284.12,773.282 1298.79,772.448 1313.5,772.5 Z"/></g>
<g><path style="opacity:1" fill="#322d2b" d="M 1348.5,853.5 C 1370.83,854.167 1393.17,854.833 1415.5,855.5C 1398.18,867.97 1380.68,880.304 1363,892.5C 1362.33,894.167 1362.33,895.833 1363,897.5C 1370.1,917.458 1376.76,937.458 1383,957.5C 1364.9,943.872 1346.4,930.872 1327.5,918.5C 1308.6,930.872 1290.1,943.872 1272,957.5C 1278.29,936.449 1285.13,915.449 1292.5,894.5C 1291.46,892.795 1290.12,891.295 1288.5,890C 1271.22,878.389 1254.22,866.389 1237.5,854C 1260.5,853.5 1283.5,853.333 1306.5,853.5C 1312.84,832.641 1319.68,811.974 1327,791.5C 1334.85,811.883 1342.02,832.55 1348.5,853.5 Z"/></g>
<g><path style="opacity:1" fill="#fbed01" d="M 1342.5,861.5 C 1358.5,862.167 1374.5,862.833 1390.5,863.5C 1377.72,872.442 1365.05,881.609 1352.5,891C 1358.51,906.192 1363.51,921.359 1367.5,936.5C 1354.17,927.167 1340.83,917.833 1327.5,908.5C 1313.89,917.444 1300.56,926.777 1287.5,936.5C 1287.17,936.167 1286.83,935.833 1286.5,935.5C 1292.41,920.414 1297.24,905.08 1301,889.5C 1288.68,880.934 1276.51,872.268 1264.5,863.5C 1280.5,862.833 1296.5,862.167 1312.5,861.5C 1316.51,846.133 1321.51,831.133 1327.5,816.5C 1332.79,831.41 1337.79,846.41 1342.5,861.5 Z"/></g>
<g><path style="opacity:1" fill="#22422e" d="M 1348.5,853.5 C 1371.5,853.333 1394.5,853.5 1417.5,854C 1416.96,854.717 1416.29,855.217 1415.5,855.5C 1393.17,854.833 1370.83,854.167 1348.5,853.5 Z"/></g>
<g><path style="opacity:1" fill="#fbfcfb" d="M 2091.5,854.5 C 2094.26,854.744 2096.43,856.077 2098,858.5C 2101.97,863.627 2104.8,869.293 2106.5,875.5C 2106.17,876.5 2105.83,877.5 2105.5,878.5C 2080.5,893.667 2055.5,908.833 2030.5,924C 2015.48,939.498 2016.14,954.498 2032.5,969C 2039.93,973.806 2047.93,974.806 2056.5,972C 2083.26,956.872 2109.76,941.372 2136,925.5C 2141.52,930.171 2145.85,935.838 2149,942.5C 2149.67,944.5 2149.67,946.5 2149,948.5C 2123.42,964.377 2097.58,979.877 2071.5,995C 2048.89,1005.3 2029.39,1001.14 2013,982.5C 2004.07,971.644 1998.07,959.311 1995,945.5C 1992.55,933.204 1995.21,922.204 2003,912.5C 2007.2,907.966 2011.7,903.799 2016.5,900C 2041.67,884.97 2066.67,869.803 2091.5,854.5 Z"/></g>
<g><path style="opacity:1" fill="#bbaf0e" d="M 1312.5,861.5 C 1296.5,862.167 1280.5,862.833 1264.5,863.5C 1263.71,863.217 1263.04,862.717 1262.5,862C 1279.16,861.5 1295.83,861.333 1312.5,861.5 Z"/></g>
<g><path style="opacity:1" fill="#beb10d" d="M 1342.5,861.5 C 1359.17,861.333 1375.84,861.5 1392.5,862C 1391.96,862.717 1391.29,863.217 1390.5,863.5C 1374.5,862.833 1358.5,862.167 1342.5,861.5 Z"/></g>
<g><path style="opacity:1" fill="#fbfcfb" d="M 584.5,864.5 C 585.873,864.343 587.207,864.51 588.5,865C 623.833,888.333 659.167,911.667 694.5,935C 695.675,937.838 695.509,940.671 694,943.5C 691.333,947.5 688.667,951.5 686,955.5C 683.552,958.545 680.719,959.045 677.5,957C 642.672,933.419 607.672,910.085 572.5,887C 571.591,883.245 572.425,879.745 575,876.5C 577.619,872.05 580.786,868.05 584.5,864.5 Z"/></g>
<g><path style="opacity:1" fill="#342d2b" d="M 1893.5,1506.5 C 1891.85,1517.03 1890.18,1527.7 1888.5,1538.5C 1873.63,1628.45 1823.97,1690.28 1739.5,1724C 1711.34,1734.46 1682.34,1741.29 1652.5,1744.5C 1638.78,1744.78 1625.11,1744.11 1611.5,1742.5C 1573.09,1735.79 1538.42,1720.62 1507.5,1697C 1495.72,1687.73 1484.39,1677.89 1473.5,1667.5C 1466.32,1678.26 1456.32,1684.76 1443.5,1687C 1438.19,1688.07 1432.86,1688.9 1427.5,1689.5C 1427.45,1707.84 1427.12,1726.17 1426.5,1744.5C 1414.17,1744.5 1401.83,1744.5 1389.5,1744.5C 1397.74,1763.36 1400.24,1783.03 1397,1803.5C 1396.12,1809.25 1394.12,1814.59 1391,1819.5C 1370.71,1842.56 1345.21,1855.39 1314.5,1858C 1302.5,1858.67 1290.5,1858.67 1278.5,1858C 1265.74,1855.76 1253.07,1853.1 1240.5,1850C 1228.24,1843.01 1220.74,1832.51 1218,1818.5C 1216.56,1812.89 1215.9,1807.22 1216,1801.5C 1228.17,1786.67 1241.67,1773.17 1256.5,1761C 1261.06,1756.95 1265.06,1752.45 1268.5,1747.5C 1255.06,1747.45 1243.22,1743.12 1233,1734.5C 1234.83,1717.16 1237,1699.82 1239.5,1682.5C 1218.74,1682.11 1198.07,1683.28 1177.5,1686C 1150.45,1717.2 1116.45,1736.54 1075.5,1744C 1022.03,1751.24 970.365,1744.57 920.5,1724C 870.756,1702.25 835.923,1666.09 816,1615.5C 807.542,1593.55 800.209,1571.22 794,1548.5C 791.49,1528.72 792.157,1509.05 796,1489.5C 796.707,1485.66 797.874,1482 799.5,1478.5C 814.09,1487.24 829.424,1493.57 845.5,1497.5C 820.2,1471.35 800.7,1441.35 787,1407.5C 780.168,1385.22 779.835,1362.89 786,1340.5C 789.754,1331.31 794.754,1322.98 801,1315.5C 816.315,1326.59 830.815,1338.76 844.5,1352C 846.699,1353.7 849.032,1355.2 851.5,1356.5C 835.44,1280.1 830.273,1202.77 836,1124.5C 836.438,1121.62 837.438,1118.96 839,1116.5C 842.294,1113.69 845.294,1114.02 848,1117.5C 858.06,1132.89 868.894,1147.73 880.5,1162C 883.298,1162.56 885.131,1161.39 886,1158.5C 891.087,1135.65 895.42,1112.65 899,1089.5C 902.549,1073.85 907.883,1058.85 915,1044.5C 921.508,1034 930.508,1026.33 942,1021.5C 946.091,1026.68 949.425,1032.34 952,1038.5C 956.867,1054.84 960.201,1071.5 962,1088.5C 964.621,1099.36 968.621,1109.69 974,1119.5C 976.312,1122.98 979.146,1125.98 982.5,1128.5C 987.499,1121.84 991.999,1114.84 996,1107.5C 1010,1077.5 1024,1047.5 1038,1017.5C 1049.42,994.738 1065.26,975.572 1085.5,960C 1109.47,945.336 1135.47,939.669 1163.5,943C 1124.21,998.176 1101.04,1059.68 1094,1127.5C 1088.68,1184.6 1089.51,1241.6 1096.5,1298.5C 1096.83,1299.17 1097.17,1299.83 1097.5,1300.5C 1116.74,1287.59 1131.74,1270.93 1142.5,1250.5C 1131.02,1240.34 1126.86,1227.67 1130,1212.5C 1132.83,1202.01 1138.33,1193.18 1146.5,1186C 1162.43,1183.32 1177.09,1186.32 1190.5,1195C 1199.52,1204.74 1203.36,1216.24 1202,1229.5C 1198,1239.5 1194,1249.5 1190,1259.5C 1173.46,1293.07 1157.63,1326.91 1142.5,1361C 1145.93,1378.36 1151.76,1394.86 1160,1410.5C 1163.12,1416.79 1167.95,1421.12 1174.5,1423.5C 1176.61,1422.95 1178.61,1422.11 1180.5,1421C 1189,1412.5 1197.5,1404 1206,1395.5C 1206,1387.8 1205.33,1380.14 1204,1372.5C 1202.45,1348.04 1205.11,1324.04 1212,1300.5C 1232.07,1296.75 1252.24,1293.42 1272.5,1290.5C 1274.21,1268.82 1276.21,1247.15 1278.5,1225.5C 1270.66,1192.75 1269.5,1159.75 1275,1126.5C 1282,1115.17 1289,1103.83 1296,1092.5C 1300.44,1043.85 1304.6,995.187 1308.5,946.5C 1330.85,947.594 1348.02,957.594 1360,976.5C 1361.94,980.11 1364.28,983.443 1367,986.5C 1369.52,1002.51 1372.19,1018.51 1375,1034.5C 1376.21,1063.16 1376.54,1091.83 1376,1120.5C 1371.71,1135.63 1367.54,1150.8 1363.5,1166C 1371.28,1173.4 1375.44,1182.56 1376,1193.5C 1376.34,1226.18 1375.84,1258.85 1374.5,1291.5C 1395.83,1292.88 1417.17,1294.22 1438.5,1295.5C 1449.82,1335.04 1454.49,1375.37 1452.5,1416.5C 1468.45,1415.95 1484.28,1414.62 1500,1412.5C 1506.23,1390.84 1512.4,1369.17 1518.5,1347.5C 1518.53,1344.57 1517.7,1341.9 1516,1339.5C 1496.36,1309.89 1479.02,1278.89 1464,1246.5C 1460.4,1236.42 1457.9,1226.08 1456.5,1215.5C 1455.6,1204.71 1458.93,1195.54 1466.5,1188C 1477.33,1181.04 1489,1178.71 1501.5,1181C 1519.07,1189.73 1523.91,1203.23 1516,1221.5C 1512.18,1225.55 1509.18,1229.88 1507,1234.5C 1513.67,1239.83 1519.67,1245.83 1525,1252.5C 1533.08,1263.66 1540.91,1274.99 1548.5,1286.5C 1573.03,1239.66 1581.53,1190 1574,1137.5C 1568.37,1103.93 1558.7,1071.6 1545,1040.5C 1529.32,1008.47 1513.65,976.469 1498,944.5C 1495.4,938.425 1494.23,932.091 1494.5,925.5C 1517.83,924.555 1539.49,930.055 1559.5,942C 1587.08,960.237 1611.58,982.071 1633,1007.5C 1654.72,1033.26 1673.72,1060.92 1690,1090.5C 1695.05,1100.6 1699.55,1110.94 1703.5,1121.5C 1707.11,1093.51 1710.61,1065.51 1714,1037.5C 1715.7,1025.32 1719.54,1013.98 1725.5,1003.5C 1765.47,1035.05 1791.63,1075.72 1804,1125.5C 1807.05,1138.43 1809.72,1151.43 1812,1164.5C 1814.55,1189.14 1816.89,1213.81 1819,1238.5C 1833.21,1210.78 1852.21,1186.78 1876,1166.5C 1905.74,1254.53 1903.08,1341.53 1868,1427.5C 1860.44,1444.3 1851.6,1460.3 1841.5,1475.5C 1841.83,1475.83 1842.17,1476.17 1842.5,1476.5C 1858.14,1465.68 1875.47,1460.01 1894.5,1459.5C 1894.6,1475.18 1894.27,1490.85 1893.5,1506.5 Z"/></g>
<g><path style="opacity:1" fill="#897e1a" d="M 1513.5,933.5 C 1509.67,932.931 1506.34,933.598 1503.5,935.5C 1502.6,934.791 1502.26,933.791 1502.5,932.5C 1506.37,932.185 1510.04,932.518 1513.5,933.5 Z"/></g>
<g><path style="opacity:1" fill="#feef00" d="M 1513.5,933.5 C 1529.3,935.951 1543.96,941.451 1557.5,950C 1589.84,971.666 1617.67,998.166 1641,1029.5C 1656.83,1050.48 1671.16,1072.48 1684,1095.5C 1688.45,1104.19 1692.12,1113.19 1695,1122.5C 1696.53,1126.39 1698.69,1129.89 1701.5,1133C 1706.46,1133.73 1709.63,1131.57 1711,1126.5C 1714.4,1096.47 1718.07,1066.47 1722,1036.5C 1722.84,1032.13 1723.84,1027.8 1725,1023.5C 1725.52,1020.75 1726.68,1018.42 1728.5,1016.5C 1763.49,1046.55 1786.16,1084.22 1796.5,1129.5C 1796.41,1132.15 1797.08,1134.49 1798.5,1136.5C 1801.87,1150.33 1804.2,1164.33 1805.5,1178.5C 1805.36,1183.41 1806.03,1188.08 1807.5,1192.5C 1809.79,1219.45 1811.29,1246.45 1812,1273.5C 1822.33,1247.16 1836,1222.83 1853,1200.5C 1858.65,1193.68 1864.82,1187.35 1871.5,1181.5C 1875.22,1190.16 1878.05,1199.16 1880,1208.5C 1897.96,1292.26 1887.63,1372.26 1849,1448.5C 1839.19,1465.95 1828.03,1482.45 1815.5,1498C 1831.6,1490.62 1847.6,1482.62 1863.5,1474C 1869.77,1470.7 1876.44,1468.86 1883.5,1468.5C 1884.5,1468.5 1885.5,1468.5 1886.5,1468.5C 1886.5,1473.83 1886.5,1479.17 1886.5,1484.5C 1885.94,1497.87 1884.94,1511.2 1883.5,1524.5C 1881.96,1529.61 1880.96,1534.94 1880.5,1540.5C 1861.78,1635.39 1806.11,1696.89 1713.5,1725C 1695.43,1730.19 1677.1,1734.03 1658.5,1736.5C 1642.11,1736.9 1625.77,1736.23 1609.5,1734.5C 1567.65,1725.91 1530.65,1707.74 1498.5,1680C 1489.35,1672.02 1480.68,1663.52 1472.5,1654.5C 1468.68,1661.29 1464.02,1667.46 1458.5,1673C 1448.36,1679.12 1437.36,1681.95 1425.5,1681.5C 1422.83,1681.5 1420.17,1681.5 1417.5,1681.5C 1417.22,1683.41 1417.55,1685.08 1418.5,1686.5C 1419.6,1693.44 1420.27,1700.44 1420.5,1707.5C 1419.77,1717.17 1419.1,1726.83 1418.5,1736.5C 1409.16,1736.67 1399.83,1736.5 1390.5,1736C 1383.38,1732.02 1376.88,1727.19 1371,1721.5C 1374.94,1730.73 1378.94,1740.07 1383,1749.5C 1385.55,1755.99 1387.39,1762.66 1388.5,1769.5C 1389.28,1780.15 1389.61,1790.81 1389.5,1801.5C 1388.59,1806 1387.09,1810.33 1385,1814.5C 1366.92,1835.46 1344.09,1847.29 1316.5,1850C 1290.91,1852.7 1265.91,1850.04 1241.5,1842C 1229.85,1832.2 1224.02,1819.7 1224,1804.5C 1237.33,1788.5 1252,1773.83 1268,1760.5C 1273.65,1754.53 1278.81,1748.2 1283.5,1741.5C 1273.28,1739.26 1262.95,1737.76 1252.5,1737C 1248.13,1735.73 1244.3,1733.57 1241,1730.5C 1243.39,1711.48 1246.23,1692.48 1249.5,1673.5C 1246.83,1673.5 1244.17,1673.5 1241.5,1673.5C 1232.31,1673.64 1223.31,1674.31 1214.5,1675.5C 1201.14,1675.97 1187.81,1676.8 1174.5,1678C 1149.03,1708.61 1116.7,1727.78 1077.5,1735.5C 1074.17,1735.22 1071.17,1735.88 1068.5,1737.5C 1045.43,1740.5 1022.43,1740.16 999.5,1736.5C 995.433,1734.95 991.1,1734.28 986.5,1734.5C 977.325,1733.27 968.325,1731.27 959.5,1728.5C 955.498,1726.39 951.165,1725.06 946.5,1724.5C 887.934,1707.78 847.101,1671.11 824,1614.5C 815.383,1592.48 807.883,1570.15 801.5,1547.5C 801.027,1536.17 800.693,1524.84 800.5,1513.5C 800.777,1508.11 801.444,1502.78 802.5,1497.5C 803.924,1495.49 804.59,1493.15 804.5,1490.5C 815.86,1495.95 827.527,1500.62 839.5,1504.5C 841.679,1505.93 844.179,1506.59 847,1506.5C 848.707,1506.49 850.207,1506.16 851.5,1505.5C 853.017,1505.49 854.184,1504.82 855,1503.5C 855.755,1500.7 855.422,1498.03 854,1495.5C 828.359,1469.36 808.526,1439.36 794.5,1405.5C 794.59,1402.85 793.924,1400.51 792.5,1398.5C 786.786,1379.35 787.286,1360.35 794,1341.5C 796.257,1335.97 799.257,1330.97 803,1326.5C 817.204,1339.02 831.704,1351.19 846.5,1363C 850.949,1366.4 855.116,1366.24 859,1362.5C 859.667,1357.83 859.667,1353.17 859,1348.5C 852.729,1324.88 848.396,1300.88 846,1276.5C 841.725,1230.6 840.392,1184.6 842,1138.5C 842.325,1134.38 843.159,1130.38 844.5,1126.5C 852.667,1138.17 860.833,1149.83 869,1161.5C 881.125,1175 889.792,1173 895,1155.5C 899.1,1134.9 902.766,1114.23 906,1093.5C 909.077,1075.48 915.41,1058.82 925,1043.5C 928.45,1038.05 933.117,1034.05 939,1031.5C 942.99,1036.48 945.657,1042.15 947,1048.5C 950.528,1062.33 953.195,1076.33 955,1090.5C 958.065,1110.47 967.232,1126.97 982.5,1140C 983.167,1140.67 983.833,1140.67 984.5,1140C 990.708,1131.09 996.541,1121.92 1002,1112.5C 1017,1080.83 1032,1049.17 1047,1017.5C 1058.58,994.253 1075.41,975.753 1097.5,962C 1110.63,955.051 1124.63,951.218 1139.5,950.5C 1142.7,949.964 1145.36,950.631 1147.5,952.5C 1118.66,996.178 1100,1043.84 1091.5,1095.5C 1089.83,1098.51 1089.16,1101.84 1089.5,1105.5C 1080.22,1174.84 1080.55,1244.17 1090.5,1313.5C 1118.2,1298.3 1138.87,1276.47 1152.5,1248C 1148.39,1244.89 1144.55,1241.39 1141,1237.5C 1139.26,1234.69 1138.09,1231.69 1137.5,1228.5C 1137.37,1222.8 1137.71,1217.13 1138.5,1211.5C 1140.52,1204.63 1144.19,1198.79 1149.5,1194C 1159.74,1192.73 1169.74,1193.73 1179.5,1197C 1190.85,1204.36 1195.69,1214.86 1194,1228.5C 1180.61,1261.95 1165.61,1294.61 1149,1326.5C 1144.03,1337.61 1139.2,1348.78 1134.5,1360C 1137.8,1377.57 1143.3,1394.4 1151,1410.5C 1155.11,1418.58 1160.95,1425.08 1168.5,1430C 1174.59,1431.27 1180.26,1430.27 1185.5,1427C 1195.33,1417.17 1205.17,1407.33 1215,1397.5C 1211.66,1377.96 1210.82,1358.3 1212.5,1338.5C 1214.05,1334.43 1214.72,1330.1 1214.5,1325.5C 1215.19,1319.75 1216.35,1314.08 1218,1308.5C 1218.52,1307.48 1219.35,1306.82 1220.5,1306.5C 1240.16,1303.41 1259.83,1300.41 1279.5,1297.5C 1281.47,1273.79 1283.8,1250.13 1286.5,1226.5C 1285.41,1217.71 1283.57,1209.04 1281,1200.5C 1280.5,1197.18 1280.33,1193.85 1280.5,1190.5C 1280.18,1170.79 1280.84,1151.13 1282.5,1131.5C 1282.49,1129.69 1282.99,1128.02 1284,1126.5C 1290.67,1115.83 1297.33,1105.17 1304,1094.5C 1306.61,1059.81 1309.45,1025.15 1312.5,990.5C 1313.89,985.731 1314.56,980.731 1314.5,975.5C 1315.21,968.857 1315.55,962.191 1315.5,955.5C 1331,957.678 1343.17,965.344 1352,978.5C 1353.94,982.11 1356.28,985.443 1359,988.5C 1361.99,1004.8 1364.99,1021.13 1368,1037.5C 1368.67,1065.5 1368.67,1093.5 1368,1121.5C 1363.03,1138.37 1358.53,1155.37 1354.5,1172.5C 1359.87,1172.53 1363.2,1175.2 1364.5,1180.5C 1365.27,1185.5 1366.1,1190.5 1367,1195.5C 1367.5,1210.5 1367.67,1225.5 1367.5,1240.5C 1367.17,1260.01 1367.5,1279.34 1368.5,1298.5C 1387.63,1300.58 1406.97,1301.91 1426.5,1302.5C 1428.5,1302.5 1430.5,1302.5 1432.5,1302.5C 1442.5,1338.81 1446.5,1375.81 1444.5,1413.5C 1443.52,1417.3 1443.18,1421.3 1443.5,1425.5C 1446.06,1425.8 1448.39,1425.47 1450.5,1424.5C 1469.1,1423.41 1487.6,1421.74 1506,1419.5C 1513.37,1395.06 1520.54,1370.56 1527.5,1346C 1516.86,1326.02 1505.36,1306.52 1493,1287.5C 1480.91,1267.33 1471.58,1245.99 1465,1223.5C 1460.81,1198.02 1471.64,1186.19 1497.5,1188C 1509.69,1192.24 1514.19,1200.74 1511,1213.5C 1508.44,1219.98 1504.44,1225.32 1499,1229.5C 1497.98,1233.71 1498.98,1237.38 1502,1240.5C 1508.33,1245.5 1514,1251.17 1519,1257.5C 1529.43,1272.03 1539.59,1286.7 1549.5,1301.5C 1575.93,1255.77 1587.26,1206.44 1583.5,1153.5C 1583.32,1146.25 1582.32,1139.25 1580.5,1132.5C 1575.74,1102.8 1567.58,1074.14 1556,1046.5C 1541.72,1014.61 1526.39,983.28 1510,952.5C 1507.26,947.023 1505.09,941.356 1503.5,935.5C 1506.34,933.598 1509.67,932.931 1513.5,933.5 Z"/></g>
<g><path style="opacity:1" fill="#fafcfb" d="M 547.5,933.5 C 555.48,934.655 562.146,938.155 567.5,944C 560.963,948.89 554.796,954.39 549,960.5C 547,963.833 545,967.167 543,970.5C 540.515,979.359 543.348,985.859 551.5,990C 557.671,990.946 563.338,989.612 568.5,986C 576.5,980 584.5,974 592.5,968C 614.642,957.04 633.142,961.54 648,981.5C 654.017,992.708 655.017,1004.37 651,1016.5C 646.357,1032.64 637.19,1045.47 623.5,1055C 619.195,1056.92 614.862,1056.92 610.5,1055C 608.33,1053.41 605.996,1052.08 603.5,1051C 599.5,1048 599.5,1045 603.5,1042C 616.34,1035.5 624.84,1025.34 629,1011.5C 631.037,1002.41 627.871,995.909 619.5,992C 615.095,991.304 610.761,991.637 606.5,993C 597.553,998.947 588.886,1005.28 580.5,1012C 559.157,1024.71 540.657,1021.54 525,1002.5C 517.824,987.91 517.824,973.244 525,958.5C 530.601,948.402 538.101,940.069 547.5,933.5 Z"/></g>
<g><path style="opacity:1" fill="#766c1e" d="M 1139.5,950.5 C 1142.29,949.523 1145.29,949.19 1148.5,949.5C 1148.74,950.791 1148.4,951.791 1147.5,952.5C 1145.36,950.631 1142.7,949.964 1139.5,950.5 Z"/></g>
<g><path style="opacity:1" fill="#7d731e" d="M 1314.5,975.5 C 1314.56,980.731 1313.89,985.731 1312.5,990.5C 1312.44,985.269 1313.11,980.269 1314.5,975.5 Z"/></g>
<g><path style="opacity:1" fill="#fbfcfb" d="M 2170.5,1002.5 C 2173.36,1002.05 2175.86,1002.72 2178,1004.5C 2182.57,1011.2 2184.9,1018.54 2185,1026.5C 2151.68,1040.44 2118.18,1054.11 2084.5,1067.5C 2083.39,1068.72 2083.22,1070.06 2084,1071.5C 2089.13,1083.72 2093.96,1096.05 2098.5,1108.5C 2097.33,1111.84 2094.99,1114 2091.5,1115C 2087.36,1117.07 2083.03,1117.73 2078.5,1117C 2070.54,1098.24 2062.7,1079.41 2055,1060.5C 2052.08,1053.71 2054.25,1049.21 2061.5,1047C 2098.15,1032.67 2134.48,1017.83 2170.5,1002.5 Z"/></g>
<g><path style="opacity:1" fill="#342d2b" d="M 1340.5,1033.5 C 1340.41,1036.15 1341.08,1038.49 1342.5,1040.5C 1344.29,1052.3 1346.79,1063.97 1350,1075.5C 1350.17,1078.83 1350.33,1082.17 1350.5,1085.5C 1348.83,1109.57 1346.49,1133.57 1343.5,1157.5C 1342.11,1162.27 1341.44,1167.27 1341.5,1172.5C 1341.5,1188.83 1341.5,1205.17 1341.5,1221.5C 1341.54,1243.84 1341.87,1266.17 1342.5,1288.5C 1329.18,1287.61 1315.85,1286.95 1302.5,1286.5C 1301.08,1285.55 1299.41,1285.22 1297.5,1285.5C 1297.5,1282.83 1297.5,1280.17 1297.5,1277.5C 1300.16,1256.53 1302.5,1235.53 1304.5,1214.5C 1305.69,1202.47 1305.36,1190.47 1303.5,1178.5C 1303.5,1177.83 1303.5,1177.17 1303.5,1176.5C 1303.61,1165.97 1302.94,1155.63 1301.5,1145.5C 1301.34,1142.81 1301.5,1140.15 1302,1137.5C 1307.33,1130.17 1312.67,1122.83 1318,1115.5C 1318.33,1100.83 1318.67,1086.17 1319,1071.5C 1322.59,1045.71 1326.92,1020.04 1332,994.5C 1335.47,1007.32 1338.31,1020.32 1340.5,1033.5 Z"/></g>
<g><path style="opacity:1" fill="#82771e" d="M 1340.5,1033.5 C 1341.92,1035.51 1342.59,1037.85 1342.5,1040.5C 1341.08,1038.49 1340.41,1036.15 1340.5,1033.5 Z"/></g>
<g><path style="opacity:1" fill="#027035" d="M 1332.5,1036.5 C 1337.62,1053.24 1341.28,1070.4 1343.5,1088C 1340.51,1115.19 1337.35,1142.36 1334,1169.5C 1333.67,1206.5 1333.84,1243.5 1334.5,1280.5C 1324.85,1279.75 1315.19,1279.42 1305.5,1279.5C 1307.88,1254.64 1310.55,1229.81 1313.5,1205C 1311.9,1183.17 1310.73,1161.34 1310,1139.5C 1314.62,1132.55 1319.62,1125.88 1325,1119.5C 1325.33,1104.5 1325.67,1089.5 1326,1074.5C 1328.49,1061.87 1330.66,1049.21 1332.5,1036.5 Z"/></g>
<g><path style="opacity:1" fill="#fbfcfb" d="M 502.5,1051.5 C 514.904,1050.14 526.237,1052.97 536.5,1060C 544.79,1068.02 549.124,1077.85 549.5,1089.5C 554.114,1085.36 559.447,1082.53 565.5,1081C 582.517,1079.33 599.517,1078.83 616.5,1079.5C 617.652,1082.11 617.818,1084.77 617,1087.5C 615.123,1094.14 612.29,1100.31 608.5,1106C 591.773,1106.24 575.107,1107.24 558.5,1109C 548.781,1112.89 543.448,1120.05 542.5,1130.5C 559.284,1135.81 575.784,1141.81 592,1148.5C 592.227,1155.09 590.894,1161.42 588,1167.5C 586.881,1170.29 584.881,1171.96 582,1172.5C 541.194,1159.29 501.027,1144.62 461.5,1128.5C 460.425,1125.56 460.259,1122.56 461,1119.5C 466.544,1103.66 472.544,1087.99 479,1072.5C 484.219,1062.44 492.052,1055.44 502.5,1051.5 Z"/></g>
<g><path style="opacity:1" fill="#087338" d="M 504.5,1079.5 C 511.725,1079.41 518.392,1081.24 524.5,1085C 529.193,1090.66 530.693,1097.16 529,1104.5C 526.871,1110.42 525.038,1116.42 523.5,1122.5C 510.907,1119.36 498.907,1114.86 487.5,1109C 489.733,1097.02 495.4,1087.18 504.5,1079.5 Z"/></g>
<g><path style="opacity:1" fill="#a09519" d="M 1091.5,1095.5 C 1091.25,1099.04 1090.58,1102.37 1089.5,1105.5C 1089.16,1101.84 1089.83,1098.51 1091.5,1095.5 Z"/></g>
<g><path style="opacity:1" fill="#8c8887" d="M 2514.5,1123.5 C 2514.17,1132.45 2512.84,1141.12 2510.5,1149.5C 2511.38,1140.63 2512.72,1131.97 2514.5,1123.5 Z"/></g>
<g><path style="opacity:1" fill="#8f841c" d="M 1796.5,1129.5 C 1797.92,1131.51 1798.59,1133.85 1798.5,1136.5C 1797.08,1134.49 1796.41,1132.15 1796.5,1129.5 Z"/></g>
<g><path style="opacity:1" fill="#7b7120" d="M 1580.5,1132.5 C 1582.32,1139.25 1583.32,1146.25 1583.5,1153.5C 1581.76,1146.74 1580.76,1139.74 1580.5,1132.5 Z"/></g>
<g><path style="opacity:1" fill="#b1a517" d="M 1301.5,1145.5 C 1302.94,1155.63 1303.61,1165.97 1303.5,1176.5C 1302.14,1166.36 1301.47,1156.03 1301.5,1145.5 Z"/></g>
<g><path style="opacity:1" fill="#f8fbf9" d="M 2191.5,1162.5 C 2197.24,1162.21 2202.91,1162.71 2208.5,1164C 2219.05,1167.55 2229.38,1171.55 2239.5,1176C 2243.27,1180.85 2244.77,1186.35 2244,1192.5C 2242.77,1193.11 2241.44,1193.44 2240,1193.5C 2230.04,1191.51 2220.04,1189.84 2210,1188.5C 2203.25,1189.35 2196.58,1190.69 2190,1192.5C 2188.03,1192.46 2186.2,1191.96 2184.5,1191C 2180.39,1184.39 2178.56,1177.22 2179,1169.5C 2182.47,1165.75 2186.64,1163.41 2191.5,1162.5 Z"/></g>
<g><path style="opacity:1" fill="#dcce0b" d="M 1282.5,1131.5 C 1280.84,1151.13 1280.18,1170.79 1280.5,1190.5C 1279.34,1176.01 1279.17,1161.34 1280,1146.5C 1280.44,1141.29 1281.27,1136.29 1282.5,1131.5 Z"/></g>
<g><path style="opacity:1" fill="#91861b" d="M 1343.5,1157.5 C 1343.56,1162.73 1342.89,1167.73 1341.5,1172.5C 1341.44,1167.27 1342.11,1162.27 1343.5,1157.5 Z"/></g>
<g><path style="opacity:1" fill="#958a1a" d="M 1805.5,1178.5 C 1806.97,1182.92 1807.64,1187.59 1807.5,1192.5C 1806.03,1188.08 1805.36,1183.41 1805.5,1178.5 Z"/></g>
<g><path style="opacity:1" fill="#fafcfb" d="M 479.5,1247.5 C 483.591,1248.9 487.924,1249.56 492.5,1249.5C 492.5,1248.5 492.5,1247.5 492.5,1246.5C 493.916,1233.5 495.416,1220.5 497,1207.5C 498.822,1205.95 500.989,1205.29 503.5,1205.5C 508.5,1205.39 513,1206.73 517,1209.5C 517.167,1210.67 517.333,1211.83 517.5,1213C 515.549,1225.78 514.215,1238.61 513.5,1251.5C 525.333,1253.13 537.167,1254.8 549,1256.5C 549.772,1256.36 550.439,1256.02 551,1255.5C 552.59,1239.12 554.59,1222.78 557,1206.5C 557.383,1205.94 557.883,1205.61 558.5,1205.5C 563.547,1205.34 568.547,1205.67 573.5,1206.5C 576.525,1207.03 577.858,1208.87 577.5,1212C 574.548,1234.12 572.048,1256.28 570,1278.5C 569.315,1281.06 567.815,1282.89 565.5,1284C 560.833,1284.67 556.167,1284.67 551.5,1284C 514.145,1279.33 476.811,1274.67 439.5,1270C 436.384,1267.6 435.051,1264.43 435.5,1260.5C 438.251,1238.16 441.084,1215.82 444,1193.5C 449.838,1192.12 455.671,1192.28 461.5,1194C 463.91,1194.76 464.91,1196.42 464.5,1199C 462.216,1214.44 460.549,1229.94 459.5,1245.5C 466.143,1246.38 472.81,1247.05 479.5,1247.5 Z"/></g>
<g><path style="opacity:1" fill="#6ead89" d="M 558.5,1205.5 C 562.646,1204.35 566.98,1204.19 571.5,1205C 572.416,1205.28 573.082,1205.78 573.5,1206.5C 568.547,1205.67 563.547,1205.34 558.5,1205.5 Z"/></g>
<g><path style="opacity:1" fill="#aca015" d="M 1303.5,1178.5 C 1305.36,1190.47 1305.69,1202.47 1304.5,1214.5C 1304.3,1202.5 1303.97,1190.5 1303.5,1178.5 Z"/></g>
<g><path style="opacity:1" fill="#ccbf0d" d="M 1364.5,1180.5 C 1366.58,1184.82 1367.75,1189.48 1368,1194.5C 1368.83,1210.01 1368.66,1225.34 1367.5,1240.5C 1367.67,1225.5 1367.5,1210.5 1367,1195.5C 1366.1,1190.5 1365.27,1185.5 1364.5,1180.5 Z"/></g>
<g><path style="opacity:1" fill="#9a8e18" d="M 1138.5,1211.5 C 1137.71,1217.13 1137.37,1222.8 1137.5,1228.5C 1136.84,1226.36 1136.5,1224.03 1136.5,1221.5C 1136.31,1217.86 1136.98,1214.53 1138.5,1211.5 Z"/></g>
<g><path style="opacity:1" fill="#fafcfb" d="M 2198.5,1346.5 C 2183.54,1348.01 2168.54,1348.68 2153.5,1348.5C 2134.21,1344.71 2121.71,1333.38 2116,1314.5C 2111.48,1299.16 2111.48,1283.83 2116,1268.5C 2123.16,1252.66 2135.33,1243.16 2152.5,1240C 2181.02,1237.78 2209.52,1235.28 2238,1232.5C 2242.46,1231.46 2245.13,1233.12 2246,1237.5C 2248.12,1244.8 2247.95,1251.97 2245.5,1259C 2216.53,1261.85 2187.53,1264.51 2158.5,1267C 2136.79,1273.93 2130.29,1288.1 2139,1309.5C 2144.68,1318.42 2152.84,1322.76 2163.5,1322.5C 2190.85,1320.38 2218.18,1318.04 2245.5,1315.5C 2247.76,1315.53 2249.93,1315.87 2252,1316.5C 2252.82,1325.08 2252.65,1333.58 2251.5,1342C 2233.8,1343.35 2216.14,1344.85 2198.5,1346.5 Z"/></g>
<g><path style="opacity:1" fill="#75b290" d="M 492.5,1246.5 C 492.5,1247.5 492.5,1248.5 492.5,1249.5C 487.924,1249.56 483.591,1248.9 479.5,1247.5C 482.884,1247.34 486.217,1247.67 489.5,1248.5C 490.739,1248.06 491.739,1247.39 492.5,1246.5 Z"/></g>
<g><path style="opacity:1" fill="#9f9419" d="M 1341.5,1221.5 C 1342.47,1238.33 1343.13,1255.33 1343.5,1272.5C 1343.5,1278.01 1343.17,1283.34 1342.5,1288.5C 1341.87,1266.17 1341.54,1243.84 1341.5,1221.5 Z"/></g>
<g><path style="opacity:1" fill="#847a1d" d="M 1297.5,1277.5 C 1297.5,1280.17 1297.5,1282.83 1297.5,1285.5C 1299.41,1285.22 1301.08,1285.55 1302.5,1286.5C 1300.5,1286.5 1298.5,1286.5 1296.5,1286.5C 1296.19,1283.29 1296.52,1280.29 1297.5,1277.5 Z"/></g>
<g><path style="opacity:1" fill="#605625" d="M 1368.5,1298.5 C 1388.04,1298.98 1407.37,1300.31 1426.5,1302.5C 1406.97,1301.91 1387.63,1300.58 1368.5,1298.5 Z"/></g>
<g><path style="opacity:1" fill="#fbfcfb" d="M 429.5,1315.5 C 432.187,1315.34 434.854,1315.5 437.5,1316C 479.489,1328.66 521.489,1341.33 563.5,1354C 564.717,1355.65 565.55,1357.48 566,1359.5C 566.917,1368.91 566.584,1378.24 565,1387.5C 564.167,1388.33 563.333,1389.17 562.5,1390C 521.767,1404.8 481.101,1419.8 440.5,1435C 436.525,1436.38 433.691,1435.21 432,1431.5C 431.333,1424.17 431.333,1416.83 432,1409.5C 467.079,1395.69 502.579,1382.86 538.5,1371C 502.851,1360.77 467.185,1350.6 431.5,1340.5C 430.066,1338.78 429.233,1336.78 429,1334.5C 428.249,1328.12 428.416,1321.78 429.5,1315.5 Z"/></g>
<g><path style="opacity:1" fill="#5b5322" d="M 1343.5,1318.5 C 1343.5,1318.83 1343.5,1319.17 1343.5,1319.5C 1330.83,1319.5 1318.17,1319.5 1305.5,1319.5C 1305.5,1331.5 1305.5,1343.5 1305.5,1355.5C 1305.17,1355.5 1304.83,1355.5 1304.5,1355.5C 1304.5,1343.17 1304.5,1330.83 1304.5,1318.5C 1317.5,1318.5 1330.5,1318.5 1343.5,1318.5 Z"/></g>
<g><path style="opacity:1" fill="#27202d" d="M 1343.5,1319.5 C 1343.5,1331.5 1343.5,1343.5 1343.5,1355.5C 1330.83,1355.5 1318.17,1355.5 1305.5,1355.5C 1305.5,1343.5 1305.5,1331.5 1305.5,1319.5C 1318.17,1319.5 1330.83,1319.5 1343.5,1319.5 Z"/></g>
<g><path style="opacity:1" fill="#322c2b" d="M 1306.5,1320.5 C 1318.5,1320.5 1330.5,1320.5 1342.5,1320.5C 1342.5,1331.83 1342.5,1343.17 1342.5,1354.5C 1330.5,1354.5 1318.5,1354.5 1306.5,1354.5C 1306.5,1343.17 1306.5,1331.83 1306.5,1320.5 Z"/></g>
<g><path style="opacity:1" fill="#605821" d="M 1270.5,1357.5 C 1270.5,1345.5 1270.5,1333.5 1270.5,1321.5C 1257.83,1321.5 1245.17,1321.5 1232.5,1321.5C 1232.5,1333.5 1232.5,1345.5 1232.5,1357.5C 1231.5,1345.34 1231.17,1333.01 1231.5,1320.5C 1244.83,1320.5 1258.17,1320.5 1271.5,1320.5C 1271.83,1333.01 1271.5,1345.34 1270.5,1357.5 Z"/></g>
<g><path style="opacity:1" fill="#312b2b" d="M 1270.5,1357.5 C 1257.83,1357.5 1245.17,1357.5 1232.5,1357.5C 1232.5,1345.5 1232.5,1333.5 1232.5,1321.5C 1245.17,1321.5 1257.83,1321.5 1270.5,1321.5C 1270.5,1333.5 1270.5,1345.5 1270.5,1357.5 Z"/></g>
<g><path style="opacity:1" fill="#332d2b" d="M 1375.5,1321.5 C 1388.5,1321.5 1401.5,1321.5 1414.5,1321.5C 1414.5,1333.83 1414.5,1346.17 1414.5,1358.5C 1401.5,1358.5 1388.5,1358.5 1375.5,1358.5C 1375.5,1346.17 1375.5,1333.83 1375.5,1321.5 Z"/></g>
<g><path style="opacity:1" fill="#036f35" d="M 1312.5,1326.5 C 1320.5,1326.5 1328.5,1326.5 1336.5,1326.5C 1336.5,1333.83 1336.5,1341.17 1336.5,1348.5C 1328.5,1348.5 1320.5,1348.5 1312.5,1348.5C 1312.5,1341.17 1312.5,1333.83 1312.5,1326.5 Z"/></g>
<g><path style="opacity:1" fill="#036f35" d="M 1239.5,1328.5 C 1247.5,1328.5 1255.5,1328.5 1263.5,1328.5C 1263.5,1335.83 1263.5,1343.17 1263.5,1350.5C 1255.5,1350.5 1247.5,1350.5 1239.5,1350.5C 1239.5,1343.17 1239.5,1335.83 1239.5,1328.5 Z"/></g>
<g><path style="opacity:1" fill="#007135" d="M 1406.5,1329.5 C 1406.5,1336.5 1406.5,1343.5 1406.5,1350.5C 1398.83,1350.5 1391.17,1350.5 1383.5,1350.5C 1383.5,1343.5 1383.5,1336.5 1383.5,1329.5C 1391.17,1329.5 1398.83,1329.5 1406.5,1329.5 Z"/></g>
<g><path style="opacity:1" fill="#afa317" d="M 1214.5,1325.5 C 1214.72,1330.1 1214.05,1334.43 1212.5,1338.5C 1212.28,1333.9 1212.95,1329.57 1214.5,1325.5 Z"/></g>
<g><path style="opacity:1" fill="#716c6b" d="M 722.5,1306.5 C 721.203,1334.5 721.203,1362.5 722.5,1390.5C 720.967,1376.87 720.301,1363.03 720.5,1349C 720.312,1334.63 720.979,1320.47 722.5,1306.5 Z"/></g>
<g><path style="opacity:1" fill="#50996d" d="M 2198.5,1346.5 C 2196.1,1347.13 2193.76,1348.13 2191.5,1349.5C 2178.71,1349.57 2166.05,1349.24 2153.5,1348.5C 2168.54,1348.68 2183.54,1348.01 2198.5,1346.5 Z"/></g>
<g><path style="opacity:1" fill="#1b4b2f" d="M 1406.5,1329.5 C 1407.49,1336.65 1407.82,1343.98 1407.5,1351.5C 1399.32,1351.83 1391.32,1351.49 1383.5,1350.5C 1391.17,1350.5 1398.83,1350.5 1406.5,1350.5C 1406.5,1343.5 1406.5,1336.5 1406.5,1329.5 Z"/></g>
<g><path style="opacity:1" fill="#a8a5a4" d="M 703.5,1298.5 C 701.885,1325.8 701.218,1353.14 701.5,1380.5C 700.338,1361 700.171,1341.34 701,1321.5C 701.744,1313.67 702.577,1306.01 703.5,1298.5 Z"/></g>
<g><path style="opacity:1" fill="#948917" d="M 1343.5,1318.5 C 1344.5,1330.99 1344.83,1343.66 1344.5,1356.5C 1330.99,1356.83 1317.66,1356.5 1304.5,1355.5C 1304.83,1355.5 1305.17,1355.5 1305.5,1355.5C 1318.17,1355.5 1330.83,1355.5 1343.5,1355.5C 1343.5,1343.5 1343.5,1331.5 1343.5,1319.5C 1343.5,1319.17 1343.5,1318.83 1343.5,1318.5 Z"/></g>
<g><path style="opacity:1" fill="#cac8c8" d="M 1971.5,1305.5 C 1973.03,1319.97 1973.7,1334.63 1973.5,1349.5C 1973.5,1360.01 1973.17,1370.34 1972.5,1380.5C 1972.65,1355.49 1972.32,1330.49 1971.5,1305.5 Z"/></g>
<g><path style="opacity:1" fill="#73691e" d="M 1293.5,1379.5 C 1293.5,1401.5 1293.5,1423.5 1293.5,1445.5C 1312.83,1445.5 1332.17,1445.5 1351.5,1445.5C 1351.5,1423.5 1351.5,1401.5 1351.5,1379.5C 1352.5,1401.66 1352.83,1423.99 1352.5,1446.5C 1332.5,1446.5 1312.5,1446.5 1292.5,1446.5C 1292.17,1423.99 1292.5,1401.66 1293.5,1379.5 Z"/></g>
<g><path style="opacity:1" fill="#29222d" d="M 1293.5,1379.5 C 1312.83,1379.5 1332.17,1379.5 1351.5,1379.5C 1351.5,1401.5 1351.5,1423.5 1351.5,1445.5C 1332.17,1445.5 1312.83,1445.5 1293.5,1445.5C 1293.5,1423.5 1293.5,1401.5 1293.5,1379.5 Z"/></g>
<g><path style="opacity:1" fill="#322c2b" d="M 1294.5,1380.5 C 1313.17,1380.5 1331.83,1380.5 1350.5,1380.5C 1350.5,1401.83 1350.5,1423.17 1350.5,1444.5C 1331.83,1444.5 1313.17,1444.5 1294.5,1444.5C 1294.5,1423.17 1294.5,1401.83 1294.5,1380.5 Z"/></g>
<g><path style="opacity:1" fill="#322c2b" d="M 1267.5,1381.5 C 1267.5,1381.83 1267.5,1382.17 1267.5,1382.5C 1266.51,1393.99 1266.17,1405.65 1266.5,1417.5C 1253.83,1417.5 1241.17,1417.5 1228.5,1417.5C 1228.5,1405.5 1228.5,1393.5 1228.5,1381.5C 1241.5,1381.5 1254.5,1381.5 1267.5,1381.5 Z"/></g>
<g><path style="opacity:1" fill="#007135" d="M 1301.5,1387.5 C 1315.83,1387.5 1330.17,1387.5 1344.5,1387.5C 1344.5,1404.17 1344.5,1420.83 1344.5,1437.5C 1330.17,1437.5 1315.83,1437.5 1301.5,1437.5C 1301.5,1420.83 1301.5,1404.17 1301.5,1387.5 Z"/></g>
<g><path style="opacity:1" fill="#007236" d="M 1259.5,1389.5 C 1259.5,1396.5 1259.5,1403.5 1259.5,1410.5C 1251.83,1410.5 1244.17,1410.5 1236.5,1410.5C 1236.5,1403.5 1236.5,1396.5 1236.5,1389.5C 1244.17,1389.5 1251.83,1389.5 1259.5,1389.5 Z"/></g>
<g><path style="opacity:1" fill="#fbfcfb" d="M 2119.5,1392.5 C 2162.56,1395.31 2205.56,1398.81 2248.5,1403C 2249,1403.5 2249.5,1404 2250,1404.5C 2250.67,1410.83 2250.67,1417.17 2250,1423.5C 2249.55,1425.52 2248.72,1427.35 2247.5,1429C 2242.17,1429.67 2236.83,1429.67 2231.5,1429C 2199.79,1426.55 2168.13,1423.71 2136.5,1420.5C 2135.24,1434.82 2134.08,1449.15 2133,1463.5C 2132.5,1464 2132,1464.5 2131.5,1465C 2126.5,1465.67 2121.5,1465.67 2116.5,1465C 2114.32,1464.84 2112.49,1464 2111,1462.5C 2112.41,1440.84 2114.07,1419.18 2116,1397.5C 2117,1395.68 2118.16,1394.01 2119.5,1392.5 Z"/></g>
<g><path style="opacity:1" fill="#6e6423" d="M 792.5,1398.5 C 793.924,1400.51 794.59,1402.85 794.5,1405.5C 793.076,1403.49 792.41,1401.15 792.5,1398.5 Z"/></g>
<g><path style="opacity:1" fill="#20452f" d="M 1259.5,1389.5 C 1260.49,1396.65 1260.82,1403.98 1260.5,1411.5C 1252.32,1411.83 1244.32,1411.49 1236.5,1410.5C 1244.17,1410.5 1251.83,1410.5 1259.5,1410.5C 1259.5,1403.5 1259.5,1396.5 1259.5,1389.5 Z"/></g>
<g><path style="opacity:1" fill="#221c2e" d="M 1267.5,1382.5 C 1267.5,1394.5 1267.5,1406.5 1267.5,1418.5C 1254.5,1418.5 1241.5,1418.5 1228.5,1418.5C 1228.5,1418.17 1228.5,1417.83 1228.5,1417.5C 1241.17,1417.5 1253.83,1417.5 1266.5,1417.5C 1266.17,1405.65 1266.51,1393.99 1267.5,1382.5 Z"/></g>
<g><path style="opacity:1" fill="#b0a412" d="M 1267.5,1381.5 C 1268.5,1393.99 1268.83,1406.66 1268.5,1419.5C 1254.99,1419.83 1241.66,1419.5 1228.5,1418.5C 1241.5,1418.5 1254.5,1418.5 1267.5,1418.5C 1267.5,1406.5 1267.5,1394.5 1267.5,1382.5C 1267.5,1382.17 1267.5,1381.83 1267.5,1381.5 Z"/></g>
<g><path style="opacity:1" fill="#7e741c" d="M 1444.5,1413.5 C 1444.5,1417.17 1444.5,1420.83 1444.5,1424.5C 1446.5,1424.5 1448.5,1424.5 1450.5,1424.5C 1448.39,1425.47 1446.06,1425.8 1443.5,1425.5C 1443.18,1421.3 1443.52,1417.3 1444.5,1413.5 Z"/></g>
<g><path style="opacity:1" fill="#857b1a" d="M 1373.5,1387.5 C 1387.83,1387.5 1402.17,1387.5 1416.5,1387.5C 1416.5,1400.83 1416.5,1414.17 1416.5,1427.5C 1402.17,1427.5 1387.83,1427.5 1373.5,1427.5C 1373.5,1414.17 1373.5,1400.83 1373.5,1387.5 Z"/></g>
<g><path style="opacity:1" fill="#312a2b" d="M 1374.5,1388.5 C 1388.17,1388.5 1401.83,1388.5 1415.5,1388.5C 1415.5,1401.17 1415.5,1413.83 1415.5,1426.5C 1401.83,1426.5 1388.17,1426.5 1374.5,1426.5C 1374.5,1413.83 1374.5,1401.17 1374.5,1388.5 Z"/></g>
<g><path style="opacity:1" fill="#165430" d="M 1382.5,1395.5 C 1382.5,1403.17 1382.5,1410.83 1382.5,1418.5C 1390.83,1418.5 1399.17,1418.5 1407.5,1418.5C 1407.5,1410.83 1407.5,1403.17 1407.5,1395.5C 1408.49,1403.32 1408.83,1411.32 1408.5,1419.5C 1399.5,1419.5 1390.5,1419.5 1381.5,1419.5C 1381.17,1411.32 1381.51,1403.32 1382.5,1395.5 Z"/></g>
<g><path style="opacity:1" fill="#007135" d="M 1382.5,1395.5 C 1390.83,1395.5 1399.17,1395.5 1407.5,1395.5C 1407.5,1403.17 1407.5,1410.83 1407.5,1418.5C 1399.17,1418.5 1390.83,1418.5 1382.5,1418.5C 1382.5,1410.83 1382.5,1403.17 1382.5,1395.5 Z"/></g>
<g><path style="opacity:1" fill="#b1aeae" d="M 1948.5,1421.5 C 1947.9,1430.74 1946.57,1439.74 1944.5,1448.5C 1945.1,1439.26 1946.43,1430.26 1948.5,1421.5 Z"/></g>
<g><path style="opacity:1" fill="#125931" d="M 1301.5,1387.5 C 1301.5,1404.17 1301.5,1420.83 1301.5,1437.5C 1315.83,1437.5 1330.17,1437.5 1344.5,1437.5C 1330.01,1438.5 1315.34,1438.83 1300.5,1438.5C 1300.17,1421.33 1300.5,1404.33 1301.5,1387.5 Z"/></g>
<g><path style="opacity:1" fill="#342d2b" d="M 1458.5,1521.5 C 1449.98,1521.66 1441.64,1522.32 1433.5,1523.5C 1430.29,1523.19 1427.29,1523.52 1424.5,1524.5C 1417.58,1524.66 1410.91,1525.66 1404.5,1527.5C 1377.8,1531.29 1352.47,1539.29 1328.5,1551.5C 1306.78,1539.65 1283.78,1531.48 1259.5,1527C 1252.19,1526.06 1244.86,1525.56 1237.5,1525.5C 1223.99,1524.23 1210.32,1524.23 1196.5,1525.5C 1194.55,1525.28 1192.88,1524.61 1191.5,1523.5C 1189.74,1498.48 1187.74,1473.48 1185.5,1448.5C 1185.5,1447.5 1185.5,1446.5 1185.5,1445.5C 1189.5,1445.5 1193.5,1445.5 1197.5,1445.5C 1212.07,1446.43 1226.4,1448.76 1240.5,1452.5C 1242.51,1453.92 1244.85,1454.59 1247.5,1454.5C 1254.78,1457.09 1262.11,1459.59 1269.5,1462C 1291.38,1471.44 1313.38,1480.6 1335.5,1489.5C 1339.37,1488.57 1343.04,1487.07 1346.5,1485C 1364.93,1472.45 1384.27,1461.45 1404.5,1452C 1422.16,1444.95 1440.49,1441.78 1459.5,1442.5C 1460.98,1468.88 1462.98,1495.22 1465.5,1521.5C 1463.17,1521.5 1460.83,1521.5 1458.5,1521.5 Z"/></g>
<g><path style="opacity:1" fill="#6d6420" d="M 1197.5,1445.5 C 1193.5,1445.5 1189.5,1445.5 1185.5,1445.5C 1185.5,1446.5 1185.5,1447.5 1185.5,1448.5C 1184.57,1447.43 1184.23,1446.1 1184.5,1444.5C 1189.03,1444.18 1193.37,1444.52 1197.5,1445.5 Z"/></g>
<g><path style="opacity:1" fill="#017135" d="M 1443.5,1450.5 C 1446.5,1450.5 1449.5,1450.5 1452.5,1450.5C 1453.88,1471.5 1455.21,1492.5 1456.5,1513.5C 1411.78,1515.09 1368.95,1524.76 1328,1542.5C 1287.39,1521.39 1244.22,1513.06 1198.5,1517.5C 1197.19,1495.8 1195.52,1474.13 1193.5,1452.5C 1212.6,1453.75 1231.26,1457.25 1249.5,1463C 1278.77,1474.64 1307.94,1486.48 1337,1498.5C 1357.91,1485.96 1379.07,1473.79 1400.5,1462C 1414.29,1455.8 1428.63,1451.97 1443.5,1450.5 Z"/></g>
<g><path style="opacity:1" fill="#a49819" d="M 1240.5,1452.5 C 1243.15,1452.41 1245.49,1453.08 1247.5,1454.5C 1244.85,1454.59 1242.51,1453.92 1240.5,1452.5 Z"/></g>
<g><path style="opacity:1" fill="#332d2b" d="M 1499.5,1453.5 C 1510.61,1456.43 1519.78,1462.43 1527,1471.5C 1535.86,1483.38 1543.53,1496.04 1550,1509.5C 1551.4,1520.53 1547.9,1529.69 1539.5,1537C 1536.67,1539.17 1533.83,1541.33 1531,1543.5C 1530.52,1544.45 1530.35,1545.45 1530.5,1546.5C 1529.08,1548.51 1528.41,1550.85 1528.5,1553.5C 1527.75,1567.33 1522.42,1579 1512.5,1588.5C 1504.85,1577.88 1497.68,1566.88 1491,1555.5C 1490.65,1525.5 1490.82,1495.5 1491.5,1465.5C 1492.48,1461.7 1492.82,1457.7 1492.5,1453.5C 1494.83,1453.5 1497.17,1453.5 1499.5,1453.5 Z"/></g>
<g><path style="opacity:1" fill="#fafcfb" d="M 562.5,1457.5 C 566.603,1456.77 570.103,1457.77 573,1460.5C 575.816,1468.38 575.982,1476.21 573.5,1484C 531.36,1489.37 489.193,1494.54 447,1499.5C 444.966,1499.65 443.299,1498.98 442,1497.5C 439.772,1489.97 439.105,1482.3 440,1474.5C 440.519,1473.48 441.353,1472.82 442.5,1472.5C 482.715,1468.02 522.715,1463.02 562.5,1457.5 Z"/></g>
<g><path style="opacity:1" fill="#017135" d="M 1499.5,1461.5 C 1508.05,1464.37 1515.21,1469.37 1521,1476.5C 1529.02,1487.2 1536.02,1498.53 1542,1510.5C 1543.49,1519.36 1540.65,1526.53 1533.5,1532C 1530.42,1534.29 1527.25,1536.46 1524,1538.5C 1521.25,1548.74 1518.92,1559.07 1517,1569.5C 1516.09,1571.66 1514.92,1573.66 1513.5,1575.5C 1508.19,1568.89 1503.35,1561.89 1499,1554.5C 1498.48,1523.5 1498.65,1492.5 1499.5,1461.5 Z"/></g>
<g><path style="opacity:1" fill="#342e2b" d="M 1159.5,1461.5 C 1163.17,1461.5 1166.83,1461.5 1170.5,1461.5C 1170.94,1495.83 1171.11,1530.17 1171,1564.5C 1164.07,1575.38 1156.9,1586.04 1149.5,1596.5C 1145.43,1593.6 1142.26,1589.93 1140,1585.5C 1136.24,1574.72 1133.24,1563.72 1131,1552.5C 1122.86,1546.69 1116.52,1539.36 1112,1530.5C 1111.33,1526.17 1111.33,1521.83 1112,1517.5C 1119.9,1500.18 1130.4,1484.68 1143.5,1471C 1148.43,1467.04 1153.77,1463.87 1159.5,1461.5 Z"/></g>
<g><path style="opacity:1" fill="#7e741b" d="M 1499.5,1453.5 C 1497.17,1453.5 1494.83,1453.5 1492.5,1453.5C 1492.82,1457.7 1492.48,1461.7 1491.5,1465.5C 1491.5,1461.17 1491.5,1456.83 1491.5,1452.5C 1494.39,1452.19 1497.05,1452.53 1499.5,1453.5 Z"/></g>
<g><path style="opacity:1" fill="#017135" d="M 1159.5,1469.5 C 1160.5,1469.5 1161.5,1469.5 1162.5,1469.5C 1163.12,1500.5 1163.28,1531.5 1163,1562.5C 1158.65,1569.89 1153.81,1576.89 1148.5,1583.5C 1146.33,1580.49 1144.83,1577.16 1144,1573.5C 1142.13,1564.37 1139.8,1555.37 1137,1546.5C 1127.63,1541.3 1121.46,1533.64 1118.5,1523.5C 1125.69,1505.62 1136.02,1489.79 1149.5,1476C 1153.01,1473.97 1156.34,1471.8 1159.5,1469.5 Z"/></g>
<g><path style="opacity:1" fill="#9c9115" d="M 1883.5,1468.5 C 1884.57,1467.57 1885.9,1467.23 1887.5,1467.5C 1887.82,1473.36 1887.49,1479.02 1886.5,1484.5C 1886.5,1479.17 1886.5,1473.83 1886.5,1468.5C 1885.5,1468.5 1884.5,1468.5 1883.5,1468.5 Z"/></g>
<g><path style="opacity:1" fill="#fbfcfb" d="M 2131.5,1493.5 C 2138.9,1493.2 2146.23,1493.7 2153.5,1495C 2181.81,1501.62 2209.98,1508.45 2238,1515.5C 2237.99,1524.05 2236.16,1532.21 2232.5,1540C 2209.05,1535.97 2185.72,1530.97 2162.5,1525C 2155.21,1523.51 2147.87,1522.34 2140.5,1521.5C 2125.7,1522.12 2116.87,1529.79 2114,1544.5C 2111.94,1558.22 2117.11,1568.06 2129.5,1574C 2158.61,1581.85 2187.94,1588.85 2217.5,1595C 2219.5,1597.84 2220,1601.01 2219,1604.5C 2217.96,1610.5 2215.8,1616 2212.5,1621C 2183.02,1615.3 2153.69,1608.63 2124.5,1601C 2102.26,1593.05 2090.93,1577.21 2090.5,1553.5C 2090.6,1533.14 2097.93,1515.98 2112.5,1502C 2118.26,1497.7 2124.6,1494.86 2131.5,1493.5 Z"/></g>
<g><path style="opacity:1" fill="#978c1a" d="M 804.5,1490.5 C 804.59,1493.15 803.924,1495.49 802.5,1497.5C 802.41,1494.85 803.076,1492.51 804.5,1490.5 Z"/></g>
<g><path style="opacity:1" fill="#716821" d="M 839.5,1504.5 C 843.466,1505.16 847.466,1505.5 851.5,1505.5C 850.207,1506.16 848.707,1506.49 847,1506.5C 844.179,1506.59 841.679,1505.93 839.5,1504.5 Z"/></g>
<g><path style="opacity:1" fill="#1b5231" d="M 1893.5,1506.5 C 1893.16,1514.55 1892.33,1522.55 1891,1530.5C 1890.9,1533.52 1890.07,1536.19 1888.5,1538.5C 1890.18,1527.7 1891.85,1517.03 1893.5,1506.5 Z"/></g>
<g><path style="opacity:1" fill="#9e931a" d="M 1458.5,1521.5 C 1450.39,1523.11 1442.06,1523.78 1433.5,1523.5C 1441.64,1522.32 1449.98,1521.66 1458.5,1521.5 Z"/></g>
<g><path style="opacity:1" fill="#fbfcfb" d="M 588.5,1537.5 C 589.796,1542.06 590.462,1546.73 590.5,1551.5C 589.955,1553.59 589.122,1555.59 588,1557.5C 566.136,1579.03 543.97,1600.2 521.5,1621C 517.12,1625.05 512.454,1628.71 507.5,1632C 539.624,1623.41 571.79,1614.58 604,1605.5C 606.477,1605.76 608.144,1607.09 609,1609.5C 611.771,1615.58 612.771,1621.91 612,1628.5C 571.332,1640.33 530.499,1651.67 489.5,1662.5C 485.661,1661.5 482.828,1659.17 481,1655.5C 477.948,1646.37 476.614,1637.03 477,1627.5C 493.142,1611.03 509.642,1594.86 526.5,1579C 535.833,1571 545.167,1563 554.5,1555C 524.639,1563.34 494.639,1571.51 464.5,1579.5C 462.626,1579.61 461.126,1578.94 460,1577.5C 456.753,1571.18 455.42,1564.52 456,1557.5C 456.75,1556.87 457.584,1556.37 458.5,1556C 496.961,1545.8 535.295,1535.13 573.5,1524C 582.932,1523.25 587.932,1527.75 588.5,1537.5 Z"/></g>
<g><path style="opacity:1" fill="#b3a713" d="M 1191.5,1523.5 C 1192.88,1524.61 1194.55,1525.28 1196.5,1525.5C 1210.32,1524.23 1223.99,1524.23 1237.5,1525.5C 1222.16,1525.52 1206.82,1525.86 1191.5,1526.5C 1191.5,1525.5 1191.5,1524.5 1191.5,1523.5 Z"/></g>
<g><path style="opacity:1" fill="#bdb014" d="M 1424.5,1524.5 C 1418.09,1526.34 1411.42,1527.34 1404.5,1527.5C 1410.91,1525.66 1417.58,1524.66 1424.5,1524.5 Z"/></g>
<g><path style="opacity:1" fill="#635925" d="M 1883.5,1524.5 C 1883.76,1530.19 1882.76,1535.53 1880.5,1540.5C 1880.96,1534.94 1881.96,1529.61 1883.5,1524.5 Z"/></g>
<g><path style="opacity:1" fill="#6b6123" d="M 800.5,1513.5 C 800.693,1524.84 801.027,1536.17 801.5,1547.5C 799.532,1536.2 799.198,1524.87 800.5,1513.5 Z"/></g>
<g><path style="opacity:1" fill="#342d2b" d="M 1431.5,1576.5 C 1421.97,1577.75 1412.63,1579.42 1403.5,1581.5C 1391.81,1583.41 1380.15,1584.91 1368.5,1586C 1375.62,1575.59 1382.62,1565.09 1389.5,1554.5C 1400.48,1553.67 1411.48,1553.17 1422.5,1553C 1433.02,1548.24 1443.69,1543.74 1454.5,1539.5C 1464.98,1548.15 1475.31,1556.98 1485.5,1566C 1467.47,1569.44 1449.47,1572.94 1431.5,1576.5 Z"/></g>
<g><path style="opacity:1" fill="#8abea2" d="M 588.5,1537.5 C 591.302,1541.93 591.969,1546.59 590.5,1551.5C 590.462,1546.73 589.796,1542.06 588.5,1537.5 Z"/></g>
<g><path style="opacity:1" fill="#352e2a" d="M 1215.5,1546.5 C 1225.82,1550.89 1236.15,1555.39 1246.5,1560C 1258.18,1560.17 1269.85,1560.67 1281.5,1561.5C 1288.17,1571.83 1294.83,1582.17 1301.5,1592.5C 1300.17,1592.83 1298.83,1593.17 1297.5,1593.5C 1260.27,1588.16 1223.27,1581.66 1186.5,1574C 1185.17,1573.33 1185.17,1572.67 1186.5,1572C 1196.61,1563.95 1206.28,1555.45 1215.5,1546.5 Z"/></g>
<g><path style="opacity:1" fill="#027035" d="M 1451.5,1548.5 C 1452.55,1548.35 1453.55,1548.52 1454.5,1549C 1459.02,1552.77 1463.36,1556.77 1467.5,1561C 1440.48,1567.61 1413.15,1572.28 1385.5,1575C 1388.04,1570.75 1390.71,1566.58 1393.5,1562.5C 1403.48,1561.67 1413.48,1561.17 1423.5,1561C 1433,1557.08 1442.33,1552.91 1451.5,1548.5 Z"/></g>
<g><path style="opacity:1" fill="#9f9419" d="M 1530.5,1546.5 C 1530.59,1549.15 1529.92,1551.49 1528.5,1553.5C 1528.41,1550.85 1529.08,1548.51 1530.5,1546.5 Z"/></g>
<g><path style="opacity:1" fill="#046f35" d="M 1216.5,1556.5 C 1226.47,1559.44 1236.14,1563.27 1245.5,1568C 1255.83,1568.33 1266.17,1568.67 1276.5,1569C 1279.7,1573.36 1282.7,1577.86 1285.5,1582.5C 1257.76,1580.82 1230.43,1576.15 1203.5,1568.5C 1207.85,1564.48 1212.19,1560.48 1216.5,1556.5 Z"/></g>
<g><path style="opacity:1" fill="#c9bc12" d="M 1431.5,1576.5 C 1431.08,1577.22 1430.42,1577.72 1429.5,1578C 1420.9,1579.71 1412.23,1580.88 1403.5,1581.5C 1412.63,1579.42 1421.97,1577.75 1431.5,1576.5 Z"/></g>
<g><path style="opacity:1" fill="#332d2b" d="M 1232.5,1600.5 C 1237.27,1601.89 1242.27,1602.56 1247.5,1602.5C 1247.83,1602.5 1248.17,1602.5 1248.5,1602.5C 1252.92,1603.97 1257.59,1604.64 1262.5,1604.5C 1263.17,1611.83 1263.83,1619.17 1264.5,1626.5C 1264.5,1628.5 1264.5,1630.5 1264.5,1632.5C 1246.17,1632.5 1227.83,1632.5 1209.5,1632.5C 1199.01,1627.75 1188.68,1622.75 1178.5,1617.5C 1181.98,1610.41 1185.64,1603.41 1189.5,1596.5C 1190.33,1596.17 1191.17,1595.83 1192,1595.5C 1205.47,1597.5 1218.97,1599.16 1232.5,1600.5 Z"/></g>
<g><path style="opacity:1" fill="#352d2b" d="M 1445.5,1633.5 C 1427.17,1633.5 1408.83,1633.5 1390.5,1633.5C 1390.5,1631.83 1390.5,1630.17 1390.5,1628.5C 1390.9,1620.55 1391.9,1612.72 1393.5,1605C 1416.2,1602.38 1438.87,1599.54 1461.5,1596.5C 1463.1,1596.55 1464.6,1596.88 1466,1597.5C 1469.5,1604.5 1473,1611.5 1476.5,1618.5C 1466.29,1623.77 1455.96,1628.77 1445.5,1633.5 Z"/></g>
<g><path style="opacity:1" fill="#ada117" d="M 1232.5,1600.5 C 1237.73,1600.44 1242.73,1601.11 1247.5,1602.5C 1242.27,1602.56 1237.27,1601.89 1232.5,1600.5 Z"/></g>
<g><path style="opacity:1" fill="#9a8f19" d="M 1248.5,1602.5 C 1253.41,1602.36 1258.08,1603.03 1262.5,1604.5C 1257.59,1604.64 1252.92,1603.97 1248.5,1602.5 Z"/></g>
<g><path style="opacity:1" fill="#027035" d="M 1194.5,1603.5 C 1214.8,1606.41 1235.13,1609.08 1255.5,1611.5C 1255.93,1615.82 1256.26,1620.16 1256.5,1624.5C 1240.83,1624.67 1225.16,1624.5 1209.5,1624C 1202.8,1621.23 1196.3,1618.07 1190,1614.5C 1190.9,1610.69 1192.4,1607.02 1194.5,1603.5 Z"/></g>
<g><path style="opacity:1" fill="#027035" d="M 1443.5,1625.5 C 1428.83,1625.5 1414.17,1625.5 1399.5,1625.5C 1399.5,1624.17 1399.5,1622.83 1399.5,1621.5C 1399.22,1618.22 1399.55,1615.06 1400.5,1612C 1419.89,1609.92 1439.22,1607.42 1458.5,1604.5C 1462.7,1606.89 1464.86,1610.55 1465,1615.5C 1457.95,1619.12 1450.79,1622.46 1443.5,1625.5 Z"/></g>
<g><path style="opacity:1" fill="#342d2b" d="M 1367.5,1626.5 C 1367.5,1632.17 1367.5,1637.83 1367.5,1643.5C 1342.5,1643.5 1317.5,1643.5 1292.5,1643.5C 1292.79,1641.26 1292.46,1639.26 1291.5,1637.5C 1291.22,1627.8 1290.55,1618.14 1289.5,1608.5C 1315.51,1608.75 1341.51,1609.42 1367.5,1610.5C 1367.5,1615.83 1367.5,1621.17 1367.5,1626.5 Z"/></g>
<g><path style="opacity:1" fill="#027035" d="M 1298.5,1616.5 C 1318.84,1616.6 1339.18,1617.1 1359.5,1618C 1360.48,1624.08 1360.81,1630.24 1360.5,1636.5C 1340.16,1636.83 1319.82,1636.5 1299.5,1635.5C 1298.54,1629.23 1298.21,1622.89 1298.5,1616.5 Z"/></g>
<g><path style="opacity:1" fill="#194f30" d="M 1399.5,1621.5 C 1399.5,1622.83 1399.5,1624.17 1399.5,1625.5C 1414.17,1625.5 1428.83,1625.5 1443.5,1625.5C 1428.68,1626.5 1413.68,1626.83 1398.5,1626.5C 1398.22,1624.59 1398.55,1622.92 1399.5,1621.5 Z"/></g>
<g><path style="opacity:1" fill="#fbfcfb" d="M 2069.5,1628.5 C 2074.45,1629.47 2079.12,1631.31 2083.5,1634C 2115.71,1651.27 2148.04,1668.27 2180.5,1685C 2185.15,1687.94 2186.65,1692.11 2185,1697.5C 2181.41,1703.68 2178.08,1710.01 2175,1716.5C 2169.49,1726.1 2161.32,1729.27 2150.5,1726C 2122.8,1721.95 2095.13,1718.28 2067.5,1715C 2089.04,1738.87 2110.21,1763.04 2131,1787.5C 2131.67,1791.5 2131.67,1795.5 2131,1799.5C 2127.08,1806.34 2123.41,1813.34 2120,1820.5C 2116.6,1824.2 2112.44,1825.37 2107.5,1824C 2071.29,1804.98 2035.12,1785.81 1999,1766.5C 1998.68,1758.14 2001.51,1750.97 2007.5,1745C 2009.17,1744.33 2010.83,1744.33 2012.5,1745C 2044.6,1761.47 2076.44,1778.3 2108,1795.5C 2108.67,1794.83 2108.67,1794.17 2108,1793.5C 2081.67,1765.17 2055.33,1736.83 2029,1708.5C 2029.62,1699.76 2033.12,1692.26 2039.5,1686C 2041,1685.83 2042.5,1685.67 2044,1685.5C 2081.86,1691.22 2119.69,1696.72 2157.5,1702C 2124.83,1685.25 2092.33,1668.08 2060,1650.5C 2059.33,1648.17 2059.33,1645.83 2060,1643.5C 2062.68,1638.13 2065.84,1633.13 2069.5,1628.5 Z"/></g>
<g><path style="opacity:1" fill="#b6aa0f" d="M 1264.5,1626.5 C 1265.47,1628.61 1265.8,1630.94 1265.5,1633.5C 1246.66,1633.83 1227.99,1633.5 1209.5,1632.5C 1227.83,1632.5 1246.17,1632.5 1264.5,1632.5C 1264.5,1630.5 1264.5,1628.5 1264.5,1626.5 Z"/></g>
<g><path style="opacity:1" fill="#a69a12" d="M 1390.5,1628.5 C 1390.5,1630.17 1390.5,1631.83 1390.5,1633.5C 1408.83,1633.5 1427.17,1633.5 1445.5,1633.5C 1427.01,1634.5 1408.34,1634.83 1389.5,1634.5C 1389.21,1632.26 1389.54,1630.26 1390.5,1628.5 Z"/></g>
<g><path style="opacity:1" fill="#504726" d="M 1367.5,1626.5 C 1368.49,1632.31 1368.82,1638.31 1368.5,1644.5C 1342.83,1644.5 1317.17,1644.5 1291.5,1644.5C 1291.5,1642.17 1291.5,1639.83 1291.5,1637.5C 1292.46,1639.26 1292.79,1641.26 1292.5,1643.5C 1317.5,1643.5 1342.5,1643.5 1367.5,1643.5C 1367.5,1637.83 1367.5,1632.17 1367.5,1626.5 Z"/></g>
<g><path style="opacity:1" fill="#7d731f" d="M 1241.5,1673.5 C 1232.71,1675.03 1223.71,1675.7 1214.5,1675.5C 1223.31,1674.31 1232.31,1673.64 1241.5,1673.5 Z"/></g>
<g><path style="opacity:1" fill="#fbfcfb" d="M 603.5,1678.5 C 622.104,1675.98 637.604,1681.64 650,1695.5C 660.642,1708.42 666.809,1723.25 668.5,1740C 667.497,1758.02 659.163,1771.36 643.5,1780C 618.341,1793.08 593.341,1806.41 568.5,1820C 563.573,1820.45 560.073,1818.28 558,1813.5C 554.876,1808.47 553.209,1803.14 553,1797.5C 579.024,1783.24 605.19,1769.07 631.5,1755C 643.615,1744.33 645.782,1731.83 638,1717.5C 626.903,1703.08 613.403,1700.58 597.5,1710C 574.176,1723 550.509,1735.5 526.5,1747.5C 523.223,1746.06 520.723,1743.73 519,1740.5C 515.9,1735.54 514.233,1730.2 514,1724.5C 536.58,1712.46 559.08,1700.29 581.5,1688C 588.584,1683.95 595.917,1680.78 603.5,1678.5 Z"/></g>
<g><path style="opacity:1" fill="#9f9417" d="M 1425.5,1681.5 C 1423.39,1682.47 1421.06,1682.8 1418.5,1682.5C 1418.5,1683.83 1418.5,1685.17 1418.5,1686.5C 1417.55,1685.08 1417.22,1683.41 1417.5,1681.5C 1420.17,1681.5 1422.83,1681.5 1425.5,1681.5 Z"/></g>
<g><path style="opacity:1" fill="#352e2b" d="M 1322.5,1718.5 C 1345.89,1733.91 1361.22,1755.24 1368.5,1782.5C 1348.54,1803.88 1323.87,1814.05 1294.5,1813C 1290.04,1812.04 1285.71,1810.71 1281.5,1809C 1296.13,1794.25 1305.96,1776.75 1311,1756.5C 1311.91,1746.69 1313.58,1737.03 1316,1727.5C 1317.69,1724.12 1319.85,1721.12 1322.5,1718.5 Z"/></g>
<g><path style="opacity:1" fill="#b5a915" d="M 946.5,1724.5 C 951.165,1725.06 955.498,1726.39 959.5,1728.5C 954.835,1727.94 950.502,1726.61 946.5,1724.5 Z"/></g>
<g><path style="opacity:1" fill="#017035" d="M 1323.5,1729.5 C 1324.55,1729.35 1325.55,1729.52 1326.5,1730C 1339.41,1740.91 1349.25,1754.07 1356,1769.5C 1358.05,1773.3 1359.05,1777.3 1359,1781.5C 1345.78,1793.7 1330.28,1801.53 1312.5,1805C 1306.8,1805.83 1301.14,1805.66 1295.5,1804.5C 1302.95,1795.27 1309.11,1785.27 1314,1774.5C 1317.77,1759.61 1320.94,1744.61 1323.5,1729.5 Z"/></g>
<g><path style="opacity:1" fill="#b6aa17" d="M 986.5,1734.5 C 991.1,1734.28 995.433,1734.95 999.5,1736.5C 994.9,1736.72 990.567,1736.05 986.5,1734.5 Z"/></g>
<g><path style="opacity:1" fill="#7a701f" d="M 1077.5,1735.5 C 1074.73,1736.66 1071.73,1737.32 1068.5,1737.5C 1071.17,1735.88 1074.17,1735.22 1077.5,1735.5 Z"/></g>
<g><path style="opacity:1" fill="#a99d16" d="M 1609.5,1734.5 C 1625.77,1736.23 1642.11,1736.9 1658.5,1736.5C 1646.67,1737.66 1634.67,1737.83 1622.5,1737C 1617.95,1736.57 1613.62,1735.74 1609.5,1734.5 Z"/></g>
<g><path style="opacity:1" fill="#22442e" d="M 1611.5,1742.5 C 1625.11,1744.11 1638.78,1744.78 1652.5,1744.5C 1643.01,1745.66 1633.34,1745.82 1623.5,1745C 1619.3,1744.47 1615.3,1743.64 1611.5,1742.5 Z"/></g>
<g><path style="opacity:1" fill="#b0a417" d="M 1388.5,1769.5 C 1390.04,1775.42 1390.71,1781.59 1390.5,1788C 1390.5,1792.68 1390.17,1797.18 1389.5,1801.5C 1389.61,1790.81 1389.28,1780.15 1388.5,1769.5 Z"/></g>
<g><path style="opacity:1" fill="#fcfcfc" d="M 764.5,1986.5 C 757.352,1985.51 750.019,1985.18 742.5,1985.5C 742.173,1994.68 742.507,2003.68 743.5,2012.5C 747.103,2022.18 749.436,2032.18 750.5,2042.5C 750.627,2058.04 742.96,2065.37 727.5,2064.5C 707.345,2063.17 698.845,2052.51 702,2032.5C 704.197,2025.77 707.197,2019.44 711,2013.5C 711.498,2010.18 711.665,2006.85 711.5,2003.5C 712.491,1996.69 712.825,1989.69 712.5,1982.5C 706.642,1982.18 700.975,1982.51 695.5,1983.5C 692.482,1983.34 689.482,1983.5 686.5,1984C 675.557,1997.64 661.557,2002.98 644.5,2000C 630.864,1992.56 625.364,1981.06 628,1965.5C 634.656,1948.25 647.156,1941.75 665.5,1946C 671.732,1948.02 677.732,1950.52 683.5,1953.5C 692.652,1954.49 701.985,1954.83 711.5,1954.5C 711.825,1946.98 711.492,1939.65 710.5,1932.5C 705.236,1920.35 702.736,1907.68 703,1894.5C 708.796,1878.85 719.963,1873.01 736.5,1877C 747.567,1879.9 753.234,1887.07 753.5,1898.5C 752.873,1909.55 749.373,1919.55 743,1928.5C 742.519,1936.84 742.019,1945.17 741.5,1953.5C 749.19,1953.93 756.857,1954.6 764.5,1955.5C 774.88,1950.26 785.88,1947.26 797.5,1946.5C 809.018,1945.84 816.852,1950.84 821,1961.5C 822.08,1970.33 821.413,1978.99 819,1987.5C 812.688,1996.05 804.188,1999.55 793.5,1998C 783.043,1996.02 773.377,1992.18 764.5,1986.5 Z"/></g>
<g><path style="opacity:1" fill="#fbfcfb" d="M 1957.5,2005.5 C 1958.49,1998.69 1958.82,1991.69 1958.5,1984.5C 1953.97,1984.18 1949.63,1984.52 1945.5,1985.5C 1941.49,1985.33 1937.49,1985.5 1933.5,1986C 1924.5,1996.34 1913.16,2002.17 1899.5,2003.5C 1885.19,2002.36 1876.69,1994.69 1874,1980.5C 1871.77,1964.79 1877.93,1953.96 1892.5,1948C 1905.73,1946.23 1918.07,1948.73 1929.5,1955.5C 1938.65,1956.49 1947.99,1956.83 1957.5,1956.5C 1957.82,1948.98 1957.49,1941.65 1956.5,1934.5C 1954.24,1927.56 1952.08,1920.56 1950,1913.5C 1945.78,1887.72 1956.62,1876.22 1982.5,1879C 1993.78,1881.95 1999.45,1889.28 1999.5,1901C 1998.96,1911.9 1995.46,1921.73 1989,1930.5C 1988.5,1938.83 1988.33,1947.16 1988.5,1955.5C 1995.67,1956.03 2002.84,1956.7 2010,1957.5C 2018.3,1954.29 2026.8,1951.46 2035.5,1949C 2061.45,1946.96 2071.95,1958.79 2067,1984.5C 2064.43,1992.74 2058.93,1997.91 2050.5,2000C 2035.73,2000.85 2022.4,1996.85 2010.5,1988C 2003.51,1987.5 1996.51,1987.33 1989.5,1987.5C 1988.08,2002.94 1989.92,2017.94 1995,2032.5C 2000.22,2061.94 1988.39,2072.44 1959.5,2064C 1949.25,2057.59 1945.42,2048.43 1948,2036.5C 1949.84,2028.98 1952.84,2021.98 1957,2015.5C 1957.5,2012.18 1957.67,2008.85 1957.5,2005.5 Z"/></g>
<g><path style="opacity:1" fill="#20472f" d="M 1279.5,1929.5 C 1305.81,1931.02 1332.14,1931.69 1358.5,1931.5C 1332.12,1933.09 1305.78,1932.42 1279.5,1929.5 Z"/></g>
<g><path style="opacity:1" fill="#c2c0c0" d="M 1397.5,1939.5 C 1384.07,1941.69 1370.41,1942.69 1356.5,1942.5C 1370,1941.29 1383.67,1940.29 1397.5,1939.5 Z"/></g>
<g><path style="opacity:1" fill="#6da084" d="M 710.5,1932.5 C 711.492,1939.65 711.825,1946.98 711.5,1954.5C 701.985,1954.83 692.652,1954.49 683.5,1953.5C 692.5,1953.5 701.5,1953.5 710.5,1953.5C 710.5,1946.5 710.5,1939.5 710.5,1932.5 Z"/></g>
<g><path style="opacity:1" fill="#549873" d="M 1956.5,1934.5 C 1957.49,1941.65 1957.82,1948.98 1957.5,1956.5C 1947.99,1956.83 1938.65,1956.49 1929.5,1955.5C 1938.5,1955.5 1947.5,1955.5 1956.5,1955.5C 1956.5,1948.5 1956.5,1941.5 1956.5,1934.5 Z"/></g>
<g><path style="opacity:1" fill="#837e7e" d="M 1283.5,1965.5 C 1293.04,1965.34 1302.37,1966.01 1311.5,1967.5C 1301.96,1967.66 1292.63,1966.99 1283.5,1965.5 Z"/></g>
<g><path style="opacity:1" fill="#4d8e6b" d="M 764.5,1986.5 C 757.5,1986.5 750.5,1986.5 743.5,1986.5C 743.5,1995.17 743.5,2003.83 743.5,2012.5C 742.507,2003.68 742.173,1994.68 742.5,1985.5C 750.019,1985.18 757.352,1985.51 764.5,1986.5 Z"/></g>
<g><path style="opacity:1" fill="#acc7b8" d="M 695.5,1983.5 C 700.975,1982.51 706.642,1982.18 712.5,1982.5C 712.825,1989.69 712.491,1996.69 711.5,2003.5C 711.5,1996.83 711.5,1990.17 711.5,1983.5C 706.167,1983.5 700.833,1983.5 695.5,1983.5 Z"/></g>
<g><path style="opacity:1" fill="#9dc1ad" d="M 1945.5,1985.5 C 1949.63,1984.52 1953.97,1984.18 1958.5,1984.5C 1958.82,1991.69 1958.49,1998.69 1957.5,2005.5C 1957.5,1998.83 1957.5,1992.17 1957.5,1985.5C 1953.5,1985.5 1949.5,1985.5 1945.5,1985.5 Z"/></g>
<g><path style="opacity:1" fill="#fbfcfb" d="M 1810.5,2019.5 C 1812.79,2019.24 1814.96,2019.58 1817,2020.5C 1839.95,2056.09 1862.12,2092.09 1883.5,2128.5C 1883.26,2132.15 1881.59,2134.98 1878.5,2137C 1873.46,2140.52 1868.13,2143.52 1862.5,2146C 1859.5,2146.67 1856.5,2146.67 1853.5,2146C 1830.34,2133.25 1807.34,2120.25 1784.5,2107C 1775.42,2101.75 1766.76,2095.92 1758.5,2089.5C 1775.6,2117.3 1793.1,2145.3 1811,2173.5C 1811.76,2176.5 1810.92,2179 1808.5,2181C 1803.93,2184.7 1798.77,2187.2 1793,2188.5C 1792.17,2188.17 1791.33,2187.83 1790.5,2187.5C 1768.86,2152.7 1747.03,2118.03 1725,2083.5C 1724.18,2080.04 1724.52,2076.7 1726,2073.5C 1732.25,2068.96 1738.75,2064.79 1745.5,2061C 1748.41,2059.68 1751.41,2059.35 1754.5,2060C 1785.68,2075.87 1815.85,2093.37 1845,2112.5C 1829.57,2086.68 1813.57,2061.02 1797,2035.5C 1796.33,2033.5 1796.33,2031.5 1797,2029.5C 1801.12,2025.54 1805.62,2022.2 1810.5,2019.5 Z"/></g>
<g><path style="opacity:1" fill="#fbfcfb" d="M 878.5,2035.5 C 887.549,2035.94 895.383,2039.27 902,2045.5C 902.667,2047.17 902.667,2048.83 902,2050.5C 885.23,2081.71 868.73,2113.04 852.5,2144.5C 865.218,2151.61 878.052,2158.61 891,2165.5C 890.865,2172.56 888.365,2178.73 883.5,2184C 882.5,2184.17 881.5,2184.33 880.5,2184.5C 860.608,2175.36 841.108,2165.36 822,2154.5C 821.042,2152.8 820.542,2150.97 820.5,2149C 821.96,2143.58 824.126,2138.41 827,2133.5C 844.419,2101 861.586,2068.33 878.5,2035.5 Z"/></g>
<g><path style="opacity:1" fill="#fbfcfb" d="M 989.5,2090.5 C 1000.93,2092.46 1011.43,2096.8 1021,2103.5C 1018.19,2149.97 1013.85,2196.3 1008,2242.5C 1005.16,2243.68 1002.33,2243.51 999.5,2242C 993.592,2239.47 988.092,2236.3 983,2232.5C 982.42,2222.22 983.253,2212.06 985.5,2202C 970.611,2194.06 955.278,2186.89 939.5,2180.5C 932.067,2187.1 925.067,2194.27 918.5,2202C 911.077,2201.3 904.077,2198.97 897.5,2195C 896.106,2194.04 895.439,2192.71 895.5,2191C 896.541,2188.28 898.041,2185.78 900,2183.5C 930.401,2152.93 960.234,2121.93 989.5,2090.5 Z"/></g>
<g><path style="opacity:1" fill="#fbfcfb" d="M 1670.5,2093.5 C 1672.2,2093.34 1673.87,2093.51 1675.5,2094C 1706.92,2128.08 1737.59,2162.75 1767.5,2198C 1765.65,2200.94 1762.98,2202.94 1759.5,2204C 1753.76,2206.89 1747.76,2208.55 1741.5,2209C 1734.98,2201.98 1728.65,2194.82 1722.5,2187.5C 1721.67,2187.17 1720.83,2186.83 1720,2186.5C 1705.49,2192.35 1690.99,2198.18 1676.5,2204C 1675.34,2205.01 1674.68,2206.34 1674.5,2208C 1675.58,2217.81 1675.74,2227.65 1675,2237.5C 1668.25,2242.42 1660.75,2244.92 1652.5,2245C 1651.87,2244.25 1651.37,2243.42 1651,2242.5C 1648.5,2197.16 1646.17,2151.82 1644,2106.5C 1647.08,2103.71 1650.58,2101.54 1654.5,2100C 1660.01,2098.11 1665.34,2095.95 1670.5,2093.5 Z"/></g>
<g><path style="opacity:1" fill="#077338" d="M 993.5,2119.5 C 994.147,2120.27 994.48,2121.27 994.5,2122.5C 991.844,2141.1 989.844,2159.77 988.5,2178.5C 981.532,2175.69 974.532,2172.85 967.5,2170C 962.804,2167.99 958.471,2165.49 954.5,2162.5C 967.892,2148.45 980.892,2134.11 993.5,2119.5 Z"/></g>
<g><path style="opacity:1" fill="#fafcfb" d="M 1063.5,2124.5 C 1075.96,2124.89 1087.96,2127.39 1099.5,2132C 1101.71,2133.87 1103.54,2136.04 1105,2138.5C 1109.1,2169.83 1113.27,2201.17 1117.5,2232.5C 1135.04,2205.91 1152.71,2179.41 1170.5,2153C 1173.33,2150.42 1176.66,2149.25 1180.5,2149.5C 1189.57,2150.9 1198.57,2152.73 1207.5,2155C 1211.72,2156.56 1213.39,2159.56 1212.5,2164C 1204.4,2202.91 1195.9,2241.74 1187,2280.5C 1186.55,2282.52 1185.72,2284.35 1184.5,2286C 1177.23,2286.84 1170.23,2285.84 1163.5,2283C 1161.88,2281.88 1160.88,2280.38 1160.5,2278.5C 1168.99,2243.23 1176.82,2207.9 1184,2172.5C 1163.33,2205.17 1142.67,2237.83 1122,2270.5C 1118.74,2272.43 1115.24,2272.93 1111.5,2272C 1105.06,2271.42 1099.56,2268.92 1095,2264.5C 1091.56,2226.37 1087.23,2188.37 1082,2150.5C 1073.67,2186.15 1065.5,2221.81 1057.5,2257.5C 1049.83,2258.26 1042.49,2257.1 1035.5,2254C 1033.79,2253.22 1032.79,2251.89 1032.5,2250C 1040.96,2209.67 1050.12,2169.5 1060,2129.5C 1061.18,2127.8 1062.34,2126.14 1063.5,2124.5 Z"/></g>
<g><path style="opacity:1" fill="#097439" d="M 1667.5,2124.5 C 1680.94,2138.65 1693.94,2153.31 1706.5,2168.5C 1695.18,2173.5 1683.84,2178.5 1672.5,2183.5C 1670.65,2163.85 1668.99,2144.18 1667.5,2124.5 Z"/></g>
<g><path style="opacity:1" fill="#fafcfb" d="M 1569.5,2129.5 C 1581.29,2128.63 1592.62,2130.47 1603.5,2135C 1607.43,2141.65 1608.93,2148.81 1608,2156.5C 1607.28,2157.06 1606.44,2157.39 1605.5,2157.5C 1588.96,2151.58 1572.29,2151.08 1555.5,2156C 1534.66,2166.85 1526.49,2184.02 1531,2207.5C 1533.49,2219.65 1538.99,2230.15 1547.5,2239C 1564.02,2250 1580.69,2250.17 1597.5,2239.5C 1597.83,2238.67 1598.17,2237.83 1598.5,2237C 1596.3,2227.19 1594.3,2217.36 1592.5,2207.5C 1583.27,2209.85 1573.93,2211.35 1564.5,2212C 1562.35,2207.43 1561.02,2202.6 1560.5,2197.5C 1560.39,2195.63 1561.06,2194.13 1562.5,2193C 1578.93,2188.48 1595.59,2185.48 1612.5,2184C 1613.33,2184.83 1614.17,2185.67 1615,2186.5C 1619.64,2203.99 1623.64,2221.66 1627,2239.5C 1627.67,2243.17 1627.67,2246.83 1627,2250.5C 1605.66,2265.8 1581.83,2272.3 1555.5,2270C 1529.26,2264.43 1512.76,2248.59 1506,2222.5C 1494.55,2169.13 1515.72,2138.13 1569.5,2129.5 Z"/></g>
<g><path style="opacity:1" fill="#fafcfb" d="M 1460.5,2153.5 C 1465.18,2153.33 1469.85,2153.5 1474.5,2154C 1476.31,2154.92 1477.31,2156.42 1477.5,2158.5C 1480.17,2194.18 1483,2229.85 1486,2265.5C 1490.7,2283.8 1483.7,2291.8 1465,2289.5C 1458.35,2290.18 1453.02,2287.84 1449,2282.5C 1429.58,2252.67 1410.91,2222.34 1393,2191.5C 1396.57,2225.05 1398.9,2258.72 1400,2292.5C 1392.79,2295.38 1385.29,2296.21 1377.5,2295C 1377,2294.5 1376.5,2294 1376,2293.5C 1374.79,2272.13 1373.13,2250.8 1371,2229.5C 1369.41,2208.18 1368.41,2186.85 1368,2165.5C 1369.54,2163.62 1371.38,2162.12 1373.5,2161C 1383.24,2160.08 1392.91,2160.41 1402.5,2162C 1423.24,2190.76 1442.41,2220.59 1460,2251.5C 1457.86,2223.03 1455.7,2194.53 1453.5,2166C 1453.83,2162.83 1454.17,2159.67 1454.5,2156.5C 1456.6,2155.48 1458.6,2154.48 1460.5,2153.5 Z"/></g>
<g><path style="opacity:1" fill="#fbfcfb" d="M 1222.5,2243.5 C 1222.4,2233.15 1222.73,2222.81 1223.5,2212.5C 1231.93,2172.43 1256.6,2154.6 1297.5,2159C 1332.94,2163.78 1350.61,2184.11 1350.5,2220C 1349.1,2280.51 1318.76,2305.18 1259.5,2294C 1235.86,2285.52 1223.53,2268.68 1222.5,2243.5 Z"/></g>
<g><path style="opacity:1" fill="#037237" d="M 1278.5,2180.5 C 1290.17,2178.92 1300.84,2181.42 1310.5,2188C 1316,2194.16 1319.5,2201.33 1321,2209.5C 1323.05,2227.75 1320.05,2245.08 1312,2261.5C 1302.18,2273.22 1289.68,2277.38 1274.5,2274C 1262.12,2270.29 1254.62,2262.12 1252,2249.5C 1247.92,2229.77 1250.59,2211.11 1260,2193.5C 1264.99,2187.27 1271.16,2182.94 1278.5,2180.5 Z"/></g>
<g><path style="opacity:1" fill="#a2cbb5" d="M 1223.5,2212.5 C 1222.73,2222.81 1222.4,2233.15 1222.5,2243.5C 1221.83,2239.51 1221.5,2235.35 1221.5,2231C 1221.33,2224.59 1221.99,2218.43 1223.5,2212.5 Z"/></g>
<g><path style="opacity:1" fill="#645f5e" d="M 952.5,2378.5 C 962.4,2379.11 972.066,2380.44 981.5,2382.5C 971.6,2381.89 961.934,2380.56 952.5,2378.5 Z"/></g>
<g><path style="opacity:1" fill="#777372" d="M 1120.5,2396.5 C 1135.7,2396.72 1150.7,2397.72 1165.5,2399.5C 1150.3,2399.2 1135.3,2398.2 1120.5,2396.5 Z"/></g>
<g><path style="opacity:1" fill="#c4c2c1" d="M 1429.5,2400.5 C 1414.03,2402.21 1398.37,2402.88 1382.5,2402.5C 1398,2401.49 1413.66,2400.83 1429.5,2400.5 Z"/></g>
<g><path style="opacity:1" fill="#9a9696" d="M 937.5,2451.5 C 945.066,2451.77 952.399,2452.77 959.5,2454.5C 951.934,2454.23 944.601,2453.23 937.5,2451.5 Z"/></g>
<g><path style="opacity:1" fill="#afadac" d="M 1094.5,2468.5 C 1104.04,2468.34 1113.37,2469.01 1122.5,2470.5C 1112.96,2470.66 1103.63,2469.99 1094.5,2468.5 Z"/></g>
</svg>
